<svg xmlns="http://www.w3.org/2000/svg" viewBox="0 0 674.682 301.853">
  <g id="Group_34" data-name="Group 34" transform="translate(0.157 -155.482)">
    <ellipse id="Ellipse_59" data-name="Ellipse 59" cx="331.072" cy="24.574" rx="331.072" ry="24.574" transform="translate(8.249 408.187)" fill="#f2f2f2"/>
    <path id="Path_346" data-name="Path 346" d="M528.5,324.894c-53.941,0-92.67,38.8-92.67,129.336C435.829,556.837,474.557,584,528.5,584s94.977-29.747,94.977-129.767C623.475,347.312,582.439,324.894,528.5,324.894Zm.355,225.045c-37.361,0-56.879-24.575-56.879-95.642,0-62.707,20.318-95.775,57.678-95.775S587.33,380.243,587.33,454.3C587.33,523.573,566.213,549.939,528.853,549.939Z" transform="translate(-201.866 -161.152)" fill="#1e285d"/>
    <path id="Path_347" data-name="Path 347" d="M285.125,516.719h-22.3V443.085c0-8.144-5.889-14.746-13.152-14.746h-5.226c-7.264,0-13.152,6.6-13.152,14.746v73.633H168.385a7.381,7.381,0,0,1-6.431-4.073,9.312,9.312,0,0,1-.208-8.278l66.58-141.286a16.365,16.365,0,0,0,.848-11.552,14.321,14.321,0,0,0-6.861-8.671l-3.93-2.081c-6.339-3.356-13.911-.549-17.215,6.382l-81.2,170.315a21.952,21.952,0,0,0-2.106,9.427h0c0,11.043,7.985,20,17.835,20h95.6v46.561c0,9.762,7.058,17.676,15.765,17.676h0c8.707,0,15.765-7.914,15.765-17.676V546.9h22.3c7.433,0,13.458-6.756,13.458-15.089h0c0-8.334-6.026-15.089-13.458-15.089Z" transform="translate(-83.462 -165.439)" fill="#2e49e5"/>
    <path id="Path_348" data-name="Path 348" d="M943.121,516.719h-22.3V443.085c0-8.144-5.888-14.746-13.152-14.746h-5.226c-7.264,0-13.153,6.6-13.153,14.746v73.633H826.381a7.381,7.381,0,0,1-6.431-4.073,9.312,9.312,0,0,1-.208-8.278l66.58-141.286a16.364,16.364,0,0,0,.848-11.552,14.322,14.322,0,0,0-6.861-8.671l-3.93-2.081c-6.339-3.356-13.911-.549-17.215,6.382l-81.2,170.315a21.953,21.953,0,0,0-2.106,9.427h0c0,11.043,7.985,20,17.835,20h95.6v46.561c0,9.762,7.058,17.676,15.765,17.676h0c8.707,0,15.765-7.914,15.765-17.676V546.9h22.3c7.433,0,13.458-6.756,13.458-15.089h0c0-8.334-6.026-15.089-13.458-15.089Z" transform="translate(-328.483 -165.439)" fill="#2e49e5"/>
    <path id="Path_349" data-name="Path 349" d="M294.927,504.465h-22.3V430.832c0-8.144-5.888-14.746-13.152-14.746h-5.226c-7.264,0-13.152,6.6-13.152,14.746v73.633H178.188a7.381,7.381,0,0,1-6.431-4.073,9.312,9.312,0,0,1-.208-8.278l66.58-141.286a16.365,16.365,0,0,0,.848-11.552,14.321,14.321,0,0,0-6.861-8.671l-3.93-2.081c-6.339-3.356-13.911-.549-17.215,6.382l-81.2,170.315a21.952,21.952,0,0,0-2.106,9.427h0c0,11.043,7.985,20,17.834,20h95.6V581.2c0,9.762,7.058,17.676,15.765,17.676h0c8.707,0,15.765-7.914,15.765-17.676V534.644h22.3c7.433,0,13.458-6.756,13.458-15.089h0C308.386,511.221,302.36,504.465,294.927,504.465Z" transform="translate(-87.112 -161.809)" fill="none" stroke="#3f3d56" stroke-miterlimit="10" stroke-width="1"/>
    <path id="Path_350" data-name="Path 350" d="M961.5,504.465H939.2V430.832c0-8.144-5.889-14.746-13.152-14.746h-5.226c-7.264,0-13.152,6.6-13.152,14.746v73.633H844.761a7.381,7.381,0,0,1-6.431-4.073,9.312,9.312,0,0,1-.208-8.278L904.7,350.828a16.365,16.365,0,0,0,.848-11.552,14.322,14.322,0,0,0-6.861-8.671l-3.93-2.081c-6.339-3.356-13.911-.549-17.215,6.382l-81.2,170.315a21.951,21.951,0,0,0-2.106,9.427h0c0,11.043,7.985,20,17.835,20h95.6V581.2c0,9.762,7.058,17.676,15.765,17.676h0c8.707,0,15.765-7.914,15.765-17.676V534.644h22.3c7.433,0,13.458-6.756,13.458-15.089h0C974.959,511.221,968.934,504.465,961.5,504.465Z" transform="translate(-335.327 -161.809)" fill="none" stroke="#3f3d56" stroke-miterlimit="10" stroke-width="1"/>
    <path id="Path_351" data-name="Path 351" d="M548.1,313.866c-53.941,0-92.669,38.8-92.669,129.336,0,102.607,38.729,129.767,92.669,129.767S643.08,543.222,643.08,443.2C643.08,336.285,602.044,313.866,548.1,313.866Zm.355,225.045c-37.361,0-56.879-24.575-56.879-95.642,0-62.707,20.318-95.775,57.678-95.775s57.678,21.721,57.678,95.775C606.935,512.545,585.818,538.911,548.458,538.911Z" transform="translate(-209.166 -157.885)" fill="none" stroke="#3f3d56" stroke-miterlimit="10" stroke-width="1"/>
    <path id="Path_353" data-name="Path 353" d="M618.906,338.218c-.488,2.247-2.591,4.047-4.92,5.3-4.9,2.644-10.937,3.432-16.8,3.7a25.3,25.3,0,0,1-4.484-.093,12.327,12.327,0,0,1-7.689-3.963,1.263,1.263,0,0,1,.027-2c3.119-3.841,8.324-6.2,13.567-7.893,3.976-1.286,10.909-4.617,15.245-4.167C618.058,329.538,619.522,335.38,618.906,338.218Z" transform="translate(-257.242 -162.387)" fill="#3f3d56"/>
    <path id="Path_354" data-name="Path 354" d="M618.906,338.218c-.488,2.247-2.591,4.047-4.92,5.3-4.9,2.644-10.937,3.432-16.8,3.7a25.3,25.3,0,0,1-4.484-.093,12.327,12.327,0,0,1-7.689-3.963,1.263,1.263,0,0,1,.027-2c3.119-3.841,8.324-6.2,13.567-7.893,3.976-1.286,10.909-4.617,15.245-4.167C618.058,329.538,619.522,335.38,618.906,338.218Z" transform="translate(-257.242 -162.387)" opacity="0.1"/>
    <path id="Path_359" data-name="Path 359" d="M668.318,341.625a5.121,5.121,0,0,0,.383,2.212c.729,1.494,2.479,1.834,3.993,1.974a105.576,105.576,0,0,0,26.527-.906,2.836,2.836,0,0,0,1.35-.47c1.249-.982.479-3.374-.885-4.14s-2.982-.581-4.478-.913a13.373,13.373,0,0,1-4.191-2.038q-4.552-2.932-8.971-6.114c-1.754-1.263-3.824-2.611-5.8-1.862C670.9,331.4,668.283,335.154,668.318,341.625Z" transform="translate(-288.436 -162.414)" fill="#3f3d56"/>
    <path id="Path_367" data-name="Path 367" d="M1064.813,565.471c5.214,2.125,11.056.326,14.57-4.487a16.09,16.09,0,0,0,1.047-16.9c-2.887-5.311-8.452-8-13.877-6.7l.327,7.538-3.181-6.46a14.112,14.112,0,0,0-6.705,8.249,15.866,15.866,0,0,0-.751,3.962C1055.829,557.2,1059.328,563.238,1064.813,565.471Z" transform="translate(-432.879 -224.02)" fill="#66cacc"/>
    <path id="Path_368" data-name="Path 368" d="M1093.535,647.6c-1.123-6.411,3.743-12.094,8.549-15.788s10.422-7.324,12.062-13.593c2.357-9.01-4.663-17.261-10.127-24.377a89.514,89.514,0,0,1-10.37-17.281,25.738,25.738,0,0,1-2.481-7.857c-.431-3.994.714-7.968,1.866-11.778q5.761-19.036,12.319-37.753" transform="translate(-445.862 -218.719)" fill="none" stroke="#3f3d56" stroke-miterlimit="10" stroke-width="1"/>
    <path id="Path_369" data-name="Path 369" d="M1065.67,562.713c5.214,2.125,11.056.326,14.57-4.487a16.09,16.09,0,0,0,1.047-16.9c-2.887-5.311-8.452-8-13.877-6.7l.327,7.538-3.181-6.46a14.111,14.111,0,0,0-6.705,8.249,15.879,15.879,0,0,0-.751,3.962C1056.686,554.44,1060.185,560.481,1065.67,562.713Z" transform="translate(-433.198 -223.203)" fill="none" stroke="#3f3d56" stroke-miterlimit="10" stroke-width="1"/>
    <path id="Path_370" data-name="Path 370" d="M1091.986,511.41a13.656,13.656,0,0,1,9.4-9.287l1.075,7.166,1.994-7.526c5.681.094,10.655,4.3,12.3,10.391a15.612,15.612,0,0,1-5.081,16.3,11.94,11.94,0,0,1-15.4-.462A15.749,15.749,0,0,1,1091.986,511.41Z" transform="translate(-445.91 -213.561)" fill="#66cacc"/>
    <path id="Path_371" data-name="Path 371" d="M1093.129,507.733a13.655,13.655,0,0,1,9.4-9.287l1.075,7.166,1.994-7.526c5.681.094,10.655,4.3,12.3,10.391a15.612,15.612,0,0,1-5.081,16.3,11.94,11.94,0,0,1-15.4-.462A15.749,15.749,0,0,1,1093.129,507.733Z" transform="translate(-446.336 -212.471)" fill="none" stroke="#3f3d56" stroke-miterlimit="10" stroke-width="1"/>
    <path id="Path_372" data-name="Path 372" d="M1102.936,613.523c6.242,2.539,13.189-.578,16.147-7.243s.984-14.758-4.587-18.809l-1.532,5.784L1111.877,586a.209.209,0,0,0-.033-.014c-6.781-2.758-14.273,1.17-16.733,8.773S1096.154,610.765,1102.936,613.523Z" transform="translate(-447.073 -238.257)" fill="#66cacc"/>
    <path id="Path_373" data-name="Path 373" d="M1103.926,609.8c6.242,2.539,13.189-.578,16.147-7.244s.984-14.758-4.587-18.809l-1.532,5.784-1.086-7.251a.2.2,0,0,0-.033-.014c-6.781-2.758-14.273,1.17-16.733,8.773s1.043,16,7.824,18.761Z" transform="translate(-447.442 -237.153)" fill="none" stroke="#3f3d56" stroke-miterlimit="10" stroke-width="1"/>
    <path id="Path_374" data-name="Path 374" d="M1086.259,652.82c1.068,6.817,6.249,11.863,12.419,12.1s11.642-4.411,13.117-11.132-1.45-13.681-7.011-16.685-12.239-1.23-16.007,4.252l5.82,9.821-7.952-5.213A16.2,16.2,0,0,0,1086.259,652.82Z" transform="translate(-443.994 -253.233)" fill="#66cacc"/>
    <path id="Path_375" data-name="Path 375" d="M1087.116,650.062c1.069,6.817,6.25,11.863,12.419,12.1s11.642-4.411,13.117-11.132-1.45-13.681-7.011-16.685-12.239-1.23-16.007,4.253l5.82,9.821L1087.5,643.2a16.2,16.2,0,0,0-.385,6.86Z" transform="translate(-444.314 -252.416)" fill="none" stroke="#3f3d56" stroke-miterlimit="10" stroke-width="1"/>
    <path id="Path_376" data-name="Path 376" d="M68.707,620.273a8.014,8.014,0,0,0,9.573-2.948,10.571,10.571,0,0,0,.688-11.1,8.237,8.237,0,0,0-9.118-4.4l.215,4.953-2.09-4.244a9.271,9.271,0,0,0-4.406,5.42,10.429,10.429,0,0,0-.494,2.6,9.714,9.714,0,0,0,5.631,9.723Z" transform="translate(-63.054 -243.146)" fill="#66cacc"/>
    <path id="Path_377" data-name="Path 377" d="M87.578,674.232c-.738-4.212,2.459-7.946,5.617-10.373s6.847-4.812,7.925-8.931c1.548-5.92-3.064-11.341-6.654-16.016a58.824,58.824,0,0,1-6.814-11.354,16.9,16.9,0,0,1-1.63-5.163,19.743,19.743,0,0,1,1.226-7.738q3.785-12.507,8.094-24.8" transform="translate(-71.584 -239.663)" fill="none" stroke="#3f3d56" stroke-miterlimit="10" stroke-width="1"/>
    <path id="Path_378" data-name="Path 378" d="M69.271,618.461a8.014,8.014,0,0,0,9.573-2.948,10.571,10.571,0,0,0,.688-11.1,8.237,8.237,0,0,0-9.118-4.4l.215,4.953-2.09-4.245a9.271,9.271,0,0,0-4.406,5.42,10.431,10.431,0,0,0-.494,2.6,9.715,9.715,0,0,0,5.631,9.723Z" transform="translate(-63.264 -242.609)" fill="none" stroke="#3f3d56" stroke-miterlimit="10" stroke-width="1"/>
    <path id="Path_379" data-name="Path 379" d="M86.561,584.754a8.972,8.972,0,0,1,6.177-6.1l.707,4.708,1.31-4.945a8.782,8.782,0,0,1,8.084,6.827A10.257,10.257,0,0,1,99.5,595.955a7.845,7.845,0,0,1-10.117-.3A10.348,10.348,0,0,1,86.561,584.754Z" transform="translate(-71.615 -236.274)" fill="#66cacc"/>
    <path id="Path_380" data-name="Path 380" d="M87.312,582.338a8.972,8.972,0,0,1,6.177-6.1l.707,4.708L95.505,576a8.782,8.782,0,0,1,8.084,6.827,10.257,10.257,0,0,1-3.338,10.712,7.845,7.845,0,0,1-10.117-.3,10.347,10.347,0,0,1-2.822-10.9Z" transform="translate(-71.895 -235.558)" fill="none" stroke="#3f3d56" stroke-miterlimit="10" stroke-width="1"/>
    <path id="Path_381" data-name="Path 381" d="M93.755,651.845c4.1,1.668,8.666-.38,10.609-4.759a10.312,10.312,0,0,0-3.014-12.358l-1.007,3.8-.714-4.764-.022-.009c-4.455-1.812-9.378.768-10.994,5.764s.685,10.514,5.141,12.326Z" transform="translate(-72.379 -252.5)" fill="#66cacc"/>
    <path id="Path_382" data-name="Path 382" d="M94.405,649.4c4.1,1.668,8.666-.38,10.609-4.759A10.312,10.312,0,0,0,102,632.281l-1.007,3.8-.714-4.764-.022-.009c-4.455-1.812-9.378.768-10.994,5.764s.685,10.514,5.141,12.326Z" transform="translate(-72.622 -251.775)" fill="none" stroke="#3f3d56" stroke-miterlimit="10" stroke-width="1"/>
    <path id="Path_383" data-name="Path 383" d="M82.8,677.663c.7,4.479,4.106,7.794,8.159,7.947s7.649-2.9,8.618-7.314a10.02,10.02,0,0,0-4.606-10.962,8,8,0,0,0-10.517,2.794l3.824,6.453-5.225-3.425a10.642,10.642,0,0,0-.253,4.507Z" transform="translate(-70.357 -262.339)" fill="#66cacc"/>
    <path id="Path_384" data-name="Path 384" d="M83.361,675.851c.7,4.479,4.106,7.794,8.159,7.947s7.649-2.9,8.618-7.314a10.02,10.02,0,0,0-4.606-10.962,8,8,0,0,0-10.517,2.794l3.824,6.453-5.225-3.425A10.643,10.643,0,0,0,83.361,675.851Z" transform="translate(-70.566 -261.802)" fill="none" stroke="#3f3d56" stroke-miterlimit="10" stroke-width="1"/>
    <ellipse id="Ellipse_64" data-name="Ellipse 64" cx="10.67" cy="15.481" rx="10.67" ry="15.481" transform="translate(291.185 255.296)" fill="#2f2e41"/>
    <ellipse id="Ellipse_65" data-name="Ellipse 65" cx="10.67" cy="15.481" rx="10.67" ry="15.481" transform="translate(349.24 255.648)" fill="#2f2e41"/>
    <path id="Path_385" data-name="Path 385" d="M600.413,537.166c0,6.995-8.711,12.666-19.456,12.666S561.5,544.161,561.5,537.166c0-6.059,6.534-11.125,15.264-12.364a28.121,28.121,0,0,1,4.193-.3,28.534,28.534,0,0,1,6.985.844C595.235,527.167,600.413,531.776,600.413,537.166Z" transform="translate(-248.662 -220.298)" fill="#2f2e41"/>
    <ellipse id="Ellipse_66" data-name="Ellipse 66" cx="10.67" cy="15.481" rx="10.67" ry="15.481" transform="translate(293.695 251.777)" fill="none" stroke="#3f3d56" stroke-miterlimit="10" stroke-width="1"/>
    <ellipse id="Ellipse_67" data-name="Ellipse 67" cx="10.67" cy="15.481" rx="10.67" ry="15.481" transform="translate(351.75 252.129)" fill="none" stroke="#3f3d56" stroke-miterlimit="10" stroke-width="1"/>
    <ellipse id="Ellipse_68" data-name="Ellipse 68" cx="19.456" cy="12.666" rx="19.456" ry="12.666" transform="translate(315.348 300.684)" fill="none" stroke="#3f3d56" stroke-miterlimit="10" stroke-width="1"/>
    <path id="Path_386" data-name="Path 386" d="M596.924,526.252a3.716,3.716,0,0,1-.828,2.387,2.6,2.6,0,0,1-2,.991h-6.276A3.148,3.148,0,0,1,585,526.252a3.758,3.758,0,0,1,.515-1.929,26.393,26.393,0,0,1,4.193-.323,26.841,26.841,0,0,1,6.986.9,3.948,3.948,0,0,1,.232,1.351Z" transform="translate(-257.412 -220.15)" fill="#fff"/>
    <ellipse id="Ellipse_69" data-name="Ellipse 69" cx="3.138" cy="3.518" rx="3.138" ry="3.518" transform="translate(301.227 259.518)" fill="#fff"/>
    <ellipse id="Ellipse_70" data-name="Ellipse 70" cx="3.138" cy="3.518" rx="3.138" ry="3.518" transform="translate(359.596 259.518)" fill="#fff"/>
    <ellipse id="Ellipse_71" data-name="Ellipse 71" cx="3.138" cy="3.518" rx="3.138" ry="3.518" transform="translate(362.734 292.591)" fill="#2e49e5" opacity="0.3"/>
    <ellipse id="Ellipse_72" data-name="Ellipse 72" cx="3.138" cy="3.518" rx="3.138" ry="3.518" transform="translate(286.164 292.591)" fill="#2e49e5" opacity="0.3"/>
  </g>
</svg>
