<svg xmlns="http://www.w3.org/2000/svg" width="30" height="10" viewBox="0 0 38.75 10">
    <defs>
        <style>
            .prefix__cls-1{fill:#2e49e5}
        </style>
    </defs>
    <title>More</title>
    <g id="prefix__More" transform="translate(-8 -192)">
        <path id="prefix__Path_435" d="M197 192a5 5 0 1 0 5 5 5 5 0 0 0-5-5zm0 8.75a3.75 3.75 0 1 1 3.75-3.75 3.75 3.75 0 0 1-3.75 3.75z" class="prefix__cls-1" data-name="Path 435" transform="translate(-169.625)"/>
        <path id="prefix__Path_436" d="M13 192a5 5 0 1 0 5 5 5 5 0 0 0-5-5zm0 8.75a3.75 3.75 0 1 1 3.75-3.75 3.75 3.75 0 0 1-3.75 3.75z" class="prefix__cls-1" data-name="Path 436"/>
        <path id="prefix__Path_437" d="M381 192a5 5 0 1 0 5 5 5 5 0 0 0-5-5zm0 8.75a3.75 3.75 0 1 1 3.75-3.75 3.75 3.75 0 0 1-3.75 3.75z" class="prefix__cls-1" data-name="Path 437" transform="translate(-339.25)"/>
    </g>
</svg>
