<svg xmlns="http://www.w3.org/2000/svg" width="505" height="575.633" viewBox="0 0 505 575.633">
    <defs>
        <style>
            .prefix__cls-1,.prefix__cls-32{isolation:isolate}.prefix__cls-2{fill:#66cacc}.prefix__cls-3{fill:#e17327}.prefix__cls-4{fill:#59b1b2}.prefix__cls-5{fill:#dfeaed}.prefix__cls-6{fill:#11477c}.prefix__cls-7{fill:#3d8dc4}.prefix__cls-8{fill:#2672b2}.prefix__cls-9{fill:#1b699e}.prefix__cls-10{fill:#a5b7c6}.prefix__cls-11{fill:#c3d3dd}.prefix__cls-12{fill:#1d262d}.prefix__cls-13{fill:#758d9e}.prefix__cls-14{fill:#455b68}.prefix__cls-15{fill:#37454f}.prefix__cls-17{fill:#3251ff}.prefix__cls-18{fill:#72e3e5}.prefix__cls-19{fill:#b6c9ce}.prefix__cls-21{fill:#d4e3e8}.prefix__cls-22{fill:#cad9dd}.prefix__cls-23{fill:#21649b}.prefix__cls-24{fill:#dce8ef}.prefix__cls-26{fill:#efc87e}.prefix__cls-27{fill:#c4c4c4}.prefix__cls-28{fill:#ececec}.prefix__cls-30{fill:#ffc8af}.prefix__cls-31{fill:#f4b298}.prefix__cls-32{mix-blend-mode:screen}
        </style>
    </defs>
    <g id="prefix__Asset_4_1_" class="prefix__cls-1" data-name="Asset 4 (1)" transform="translate(-243.994 -73.001)">
        <g id="prefix__Asset_5_1_" class="prefix__cls-1" data-name="Asset 5 (1)" transform="translate(243.994 73.001)">
            <g id="prefix__Layer_2" data-name="Layer 2">
                <g id="prefix__OBJECTS">
                    <path id="prefix__Path_1653" d="M77.212 61.8l28.619 16.537-5.652 3.26L71.56 65.075z" class="prefix__cls-2" data-name="Path 1653" transform="translate(35.439 30.603)"/>
                    <path id="prefix__Path_1654" d="M90.7 246.09l85.213-49.19V42.14L90.7 91.333z" class="prefix__cls-3" data-name="Path 1654" transform="translate(44.918 20.867)"/>
                    <path id="prefix__Path_1655" d="M71.56 218.747l28.619 16.522V80.512L71.56 63.99z" class="prefix__cls-4" data-name="Path 1655" transform="translate(35.439 31.688)"/>
                    <path id="prefix__Path_1656" d="M75.08 157.009l18.077 10.437V99.577L75.08 89.14z" class="prefix__cls-5" data-name="Path 1656" transform="translate(37.182 44.143)"/>
                    <path id="prefix__Path_1657" d="M86.91 89.158l85.213-49.208 5.667 3.275-85.213 49.193z" class="prefix__cls-2" data-name="Path 1657" transform="translate(43.041 19.782)"/>
                    <path id="prefix__Path_1658" d="M71.56 80.283l85.2-49.193 5.667 3.26-85.215 49.208z" class="prefix__cls-2" data-name="Path 1658" transform="translate(35.439 15.395)"/>
                    <path id="prefix__Path_1659" d="M75.9 154.156a17.255 17.255 0 0 0 7.82 13.532c4.306 2.5 7.805.478 7.805-4.486a17.3 17.3 0 0 0-7.805-13.547c-4.32-2.512-7.82-.448-7.82 4.501z" class="prefix__cls-6" data-name="Path 1659" transform="translate(37.588 73.581)"/>
                    <path id="prefix__Path_1660" d="M158.676 33.27v19.976L96.43 89.192 79.13 79.2z" class="prefix__cls-4" data-name="Path 1660" transform="translate(39.188 16.474)"/>
                    <path id="prefix__Path_1661" d="M169.278 45.848l-17.3-9.988L79.13 77.921l17.3 9.988z" class="prefix__cls-5" data-name="Path 1661" transform="translate(39.188 17.757)"/>
                    <path id="prefix__Path_1662" d="M96.352 72.86l28.634 16.522-5.667 3.26L90.7 76.12z" class="prefix__cls-7" data-name="Path 1662" transform="translate(44.918 36.08)"/>
                    <path id="prefix__Path_1663" d="M109.84 257.14l85.213-49.193V53.19l-85.213 49.193z" class="prefix__cls-8" data-name="Path 1663" transform="translate(54.396 26.339)"/>
                    <path id="prefix__Path_1664" d="M90.7 229.8l28.619 16.522V91.562L90.7 75.04z" class="prefix__cls-9" data-name="Path 1664" transform="translate(44.918 37.16)"/>
                    <path id="prefix__Path_1665" d="M94.22 168.059l18.092 10.441v-67.858L94.22 100.19z" class="prefix__cls-5" data-name="Path 1665" transform="translate(46.661 49.615)"/>
                    <path id="prefix__Path_1666" d="M106.05 100.2l85.213-49.19 5.667 3.26-85.213 49.193z" class="prefix__cls-7" data-name="Path 1666" transform="translate(52.519 25.26)"/>
                    <path id="prefix__Path_1667" d="M90.7 91.333l85.213-49.193 5.652 3.275-85.213 49.193z" class="prefix__cls-7" data-name="Path 1667" transform="translate(44.918 20.867)"/>
                    <path id="prefix__Path_1668" d="M95 165.209a17.3 17.3 0 0 0 7.82 13.547c4.321 2.482 7.82.464 7.82-4.486a17.27 17.27 0 0 0-7.82-13.547c-4.261-2.523-7.82-.538-7.82 4.486z" class="prefix__cls-6" data-name="Path 1668" transform="translate(47.047 79.051)"/>
                    <path id="prefix__Path_1669" d="M177.816 44.33v19.961l-62.246 35.946-17.3-9.988z" class="prefix__cls-8" data-name="Path 1669" transform="translate(48.667 21.951)"/>
                    <path id="prefix__Path_1670" d="M188.418 56.9l-17.3-9.988L98.27 88.971l17.3 9.988z" class="prefix__cls-5" data-name="Path 1670" transform="translate(48.667 23.229)"/>
                    <path id="prefix__Path_1671" d="M338.583 234.8L330 239.827a5.981 5.981 0 0 0 2.512-5.5l8.538-4.964a5.981 5.981 0 0 1-2.467 5.437z" class="prefix__cls-10" data-name="Path 1671" transform="translate(163.427 113.584)"/>
                    <path id="prefix__Path_1672" d="M167.66 5.532l8.54-4.95c1.5-.912 3.723-.778 6.116.6l-8.538 4.964c-2.395-1.377-4.563-1.512-6.118-.614z" class="prefix__cls-10" data-name="Path 1672" transform="translate(83.031 -.001)"/>
                    <path id="prefix__Path_1673" d="M332.188 104.889l8.538-4.949-.478 193.513-8.538 4.964z" class="prefix__cls-11" data-name="Path 1673" transform="translate(164.274 49.491)"/>
                    <path id="prefix__Path_1674" d="M171.75 5.754L180.288.79l231.088 133.435-8.538 4.949z" class="prefix__cls-10" data-name="Path 1674" transform="translate(85.056 .389)"/>
                    <path id="prefix__Path_1675" d="M326.3 94.994L334.823 90a18.8 18.8 0 0 1 8.553 14.818l-8.523 4.949a18.87 18.87 0 0 0-8.553-14.773z" class="prefix__cls-11" data-name="Path 1675" transform="translate(161.595 44.569)"/>
                    <path id="prefix__Path_1676" d="M405.849 137.923a18.87 18.87 0 0 1 8.568 14.818l-.479 193.528c0 5.473-3.9 7.626-8.613 4.9l-231.1-133.42a18.825 18.825 0 0 1-8.553-14.818l.493-193.528c0-5.458 3.858-7.656 8.613-4.9z" class="prefix__cls-12" data-name="Path 1676" transform="translate(82.045 1.64)"/>
                    <path id="prefix__Path_1677" d="M171.849 17.12l-.419 174.329 231.088 133.42.434-174.329z" class="prefix__cls-6" data-name="Path 1677" transform="translate(84.898 8.476)"/>
                    <path id="prefix__Path_1678" d="M329.479 239.3v9.869a5.981 5.981 0 0 1-3.5 4.919v-9.869a5.981 5.981 0 0 0 3.5-4.919z" class="prefix__cls-11" data-name="Path 1678" transform="translate(161.436 118.507)"/>
                    <path id="prefix__Path_1679" d="M220.87 306.81v9.883a18.975 18.975 0 0 1-17.12 0v-9.883a18.885 18.885 0 0 0 17.12 0z" class="prefix__cls-13" data-name="Path 1679" transform="translate(100.904 151.94)"/>
                    <path id="prefix__Path_1680" d="M46.79 224.119v-9.869c0 1.794 1.181 3.6 3.574 4.979v9.871c-2.393-1.378-3.574-3.187-3.574-4.981z" class="prefix__cls-13" data-name="Path 1680" transform="translate(23.172 106.101)"/>
                    <path id="prefix__Path_1681" d="M380.852 242.59l-.015 9.869L215.18 348.5l.03-9.884z" class="prefix__cls-11" data-name="Path 1681" transform="translate(106.564 120.136)"/>
                    <path id="prefix__Path_1682" d="M280.3 351l-.03 9.884L49.18 227.449l.03-9.869z" class="prefix__cls-13" data-name="Path 1682" transform="translate(24.356 107.751)"/>
                    <path id="prefix__Path_1683" d="M464.26 280.889c4.71 2.721 4.74 7.192 0 9.913l-165.672 95.964a18.885 18.885 0 0 1-17.12 0L50.379 253.347c-4.755-2.751-4.74-7.192 0-9.913l165.672-96.024a18.855 18.855 0 0 1 17.105 0z" class="prefix__cls-10" data-name="Path 1683" transform="translate(23.186 71.984)"/>
                    <g id="prefix__Group_402" class="prefix__cls-1" data-name="Group 402" transform="translate(160.343 327.623)">
                        <path id="prefix__Path_1684" d="M246.777 269.318l-85.228-49.178a9.45 9.45 0 0 0-8.568 0l-43.99 25.329c-2.348 1.361-2.333 3.6 0 4.964l85.228 49.178a9.42 9.42 0 0 0 8.553 0l44.035-25.344c2.377-1.391 2.362-3.574 0-4.964" class="prefix__cls-11" data-name="Path 1684" transform="translate(-107.236 -219.113)"/>
                    </g>
                    <g id="prefix__Group_403" class="prefix__cls-1" data-name="Group 403" transform="translate(227.933 225.628)">
                        <path id="prefix__Path_1685" d="M178.245 156.82v2.467l-15.565 9.031.015-2.467z" class="prefix__cls-14" data-name="Path 1685" transform="translate(-147.369 -147.968)"/>
                        <path id="prefix__Path_1686" d="M167.766 165.787l-.015 2.467-15.311-8.837v-2.467z" class="prefix__cls-12" data-name="Path 1686" transform="translate(-152.44 -147.904)"/>
                        <path id="prefix__Path_1687" d="M183.317 159.752l-15.55 9.031-15.326-8.837 15.565-9.046z" class="prefix__cls-15" data-name="Path 1687" transform="translate(-152.44 -150.9)"/>
                    </g>
                    <g id="prefix__Group_404" class="prefix__cls-1" data-name="Group 404" transform="translate(247.536 236.947)">
                        <path id="prefix__Path_1688" d="M191.385 164.4l-.015 2.467-15.55 9.046v-2.467z" class="prefix__cls-14" data-name="Path 1688" transform="translate(-160.464 -155.533)"/>
                        <path id="prefix__Path_1689" d="M180.906 173.387v2.467l-15.356-8.867.015-2.467z" class="prefix__cls-12" data-name="Path 1689" transform="translate(-165.55 -155.474)"/>
                        <path id="prefix__Path_1690" d="M196.466 167.337l-15.566 9.046-15.341-8.867 15.55-9.046z" class="prefix__cls-15" data-name="Path 1690" transform="translate(-165.545 -158.47)"/>
                    </g>
                    <g id="prefix__Group_405" class="prefix__cls-1" data-name="Group 405" transform="translate(267.183 248.296)">
                        <path id="prefix__Path_1691" d="M204.5 171.97l-.015 2.467-15.55 9.046V181z" class="prefix__cls-14" data-name="Path 1691" transform="translate(-173.619 -163.133)"/>
                        <path id="prefix__Path_1692" d="M194 180.937v2.482l-15.311-8.852V172.1z" class="prefix__cls-12" data-name="Path 1692" transform="translate(-178.69 -163.069)"/>
                        <path id="prefix__Path_1693" d="M209.567 174.9L194 183.928l-15.311-8.837 15.565-9.031z" class="prefix__cls-15" data-name="Path 1693" transform="translate(-178.69 -166.06)"/>
                    </g>
                    <g id="prefix__Group_406" class="prefix__cls-1" data-name="Group 406" transform="translate(286.786 259.615)">
                        <path id="prefix__Path_1694" d="M217.605 179.54l-.015 2.467-15.55 9.046v-2.467z" class="prefix__cls-14" data-name="Path 1694" transform="translate(-186.729 -170.703)"/>
                        <path id="prefix__Path_1695" d="M207.111 188.522v2.467l-15.311-8.852v-2.467z" class="prefix__cls-12" data-name="Path 1695" transform="translate(-191.8 -170.639)"/>
                        <path id="prefix__Path_1696" d="M222.677 182.467l-15.565 9.046-15.312-8.852 15.565-9.031z" class="prefix__cls-15" data-name="Path 1696" transform="translate(-191.8 -173.63)"/>
                    </g>
                    <g id="prefix__Group_407" class="prefix__cls-1" data-name="Group 407" transform="translate(306.388 270.919)">
                        <path id="prefix__Path_1697" d="M230.715 187.11l-.015 2.467-15.55 9.046v-2.482z" class="prefix__cls-14" data-name="Path 1697" transform="translate(-199.839 -178.258)"/>
                        <path id="prefix__Path_1698" d="M220.221 196.077v2.482l-15.311-8.852v-2.467z" class="prefix__cls-12" data-name="Path 1698" transform="translate(-204.91 -178.194)"/>
                        <path id="prefix__Path_1699" d="M235.787 190.042l-15.565 9.031-15.311-8.837 15.565-9.046z" class="prefix__cls-15" data-name="Path 1699" transform="translate(-204.91 -181.19)"/>
                    </g>
                    <g id="prefix__Group_408" class="prefix__cls-1" data-name="Group 408" transform="translate(326.021 282.268)">
                        <path id="prefix__Path_1700" d="M243.845 194.69v2.467L228.28 206.2l.015-2.467z" class="prefix__cls-14" data-name="Path 1700" transform="translate(-212.969 -185.853)"/>
                        <path id="prefix__Path_1701" d="M233.366 203.667l-.015 2.467-15.311-8.834.015-2.467z" class="prefix__cls-12" data-name="Path 1701" transform="translate(-218.04 -185.784)"/>
                        <path id="prefix__Path_1702" d="M248.912 197.617l-15.55 9.046-15.311-8.837 15.55-9.046z" class="prefix__cls-15" data-name="Path 1702" transform="translate(-218.035 -188.78)"/>
                    </g>
                    <g id="prefix__Group_409" class="prefix__cls-1" data-name="Group 409" transform="translate(345.623 293.587)">
                        <path id="prefix__Path_1703" d="M256.955 202.26v2.467l-15.565 9.046.015-2.467z" class="prefix__cls-14" data-name="Path 1703" transform="translate(-226.079 -193.423)"/>
                        <path id="prefix__Path_1704" d="M246.476 211.237l-.015 2.467-15.311-8.837.015-2.467z" class="prefix__cls-12" data-name="Path 1704" transform="translate(-231.15 -193.354)"/>
                        <path id="prefix__Path_1705" d="M262.022 205.187l-15.55 9.046-15.312-8.833 15.55-9.046z" class="prefix__cls-15" data-name="Path 1705" transform="translate(-231.145 -196.35)"/>
                    </g>
                    <g id="prefix__Group_410" class="prefix__cls-1" data-name="Group 410" transform="translate(365.226 304.906)">
                        <path id="prefix__Path_1706" d="M270.065 209.83v2.47l-15.565 9.043.015-2.467z" class="prefix__cls-14" data-name="Path 1706" transform="translate(-239.189 -200.993)"/>
                        <path id="prefix__Path_1707" d="M259.586 218.812l-.015 2.467-15.311-8.837.015-2.482z" class="prefix__cls-12" data-name="Path 1707" transform="translate(-244.26 -200.929)"/>
                        <path id="prefix__Path_1708" d="M275.132 212.757l-15.55 9.046-15.311-8.852 15.55-9.031z" class="prefix__cls-15" data-name="Path 1708" transform="translate(-244.255 -203.92)"/>
                    </g>
                    <g id="prefix__Group_411" class="prefix__cls-1" data-name="Group 411" transform="translate(384.828 316.225)">
                        <path id="prefix__Path_1709" d="M283.205 217.41l-.015 2.467-15.55 9.046v-2.467z" class="prefix__cls-14" data-name="Path 1709" transform="translate(-252.284 -208.558)"/>
                        <path id="prefix__Path_1710" d="M272.726 226.4v2.467L257.37 220l.015-2.467z" class="prefix__cls-12" data-name="Path 1710" transform="translate(-257.37 -208.499)"/>
                        <path id="prefix__Path_1711" d="M288.286 220.342l-15.565 9.046-15.341-8.867 15.55-9.031z" class="prefix__cls-15" data-name="Path 1711" transform="translate(-257.365 -211.49)"/>
                    </g>
                    <g id="prefix__Group_412" class="prefix__cls-1" data-name="Group 412" transform="translate(404.475 327.559)">
                        <path id="prefix__Path_1712" d="M296.315 224.98l-.015 2.467-15.55 9.046v-2.467z" class="prefix__cls-14" data-name="Path 1712" transform="translate(-265.439 -216.143)"/>
                        <path id="prefix__Path_1713" d="M285.821 233.957v2.467l-15.311-8.837v-2.467z" class="prefix__cls-12" data-name="Path 1713" transform="translate(-270.51 -216.074)"/>
                        <path id="prefix__Path_1714" d="M301.387 227.907l-15.565 9.046-15.311-8.837 15.565-9.046z" class="prefix__cls-15" data-name="Path 1714" transform="translate(-270.51 -219.07)"/>
                    </g>
                    <g id="prefix__Group_413" class="prefix__cls-1" data-name="Group 413" transform="translate(424.078 338.877)">
                        <path id="prefix__Path_1715" d="M322.565 240.14l-.015 2.467-15.55 9.031v-2.467z" class="prefix__cls-14" data-name="Path 1715" transform="translate(-272.041 -219.954)"/>
                        <path id="prefix__Path_1716" d="M318.579 252.861v2.467l-34.959-20.171.015-2.467z" class="prefix__cls-12" data-name="Path 1716" transform="translate(-283.62 -223.644)"/>
                        <path id="prefix__Path_1717" d="M334.139 246.826l-15.565 9.031-34.944-20.171 15.55-9.046z" class="prefix__cls-15" data-name="Path 1717" transform="translate(-283.615 -226.64)"/>
                    </g>
                    <g id="prefix__Group_414" class="prefix__cls-1" data-name="Group 414" transform="translate(208.151 237.157)">
                        <path id="prefix__Path_1718" d="M178.111 172.1v2.467L162.59 183.6v-2.482z" class="prefix__cls-14" data-name="Path 1718" transform="translate(-127.631 -151.929)"/>
                        <path id="prefix__Path_1719" d="M174.169 184.811v2.482l-34.959-20.186.015-2.467z" class="prefix__cls-12" data-name="Path 1719" transform="translate(-139.21 -155.624)"/>
                        <path id="prefix__Path_1720" d="M189.684 178.781l-15.52 9.019-34.944-20.174 15.506-9.016z" class="prefix__cls-15" data-name="Path 1720" transform="translate(-139.205 -158.61)"/>
                    </g>
                    <g id="prefix__Group_415" class="prefix__cls-1" data-name="Group 415" transform="translate(247.401 259.809)">
                        <path id="prefix__Path_1721" d="M191.221 179.67l-.015 2.467-15.506 9.016v-2.467z" class="prefix__cls-14" data-name="Path 1721" transform="translate(-160.389 -170.833)"/>
                        <path id="prefix__Path_1722" d="M180.771 188.627v2.467l-15.311-8.837v-2.467z" class="prefix__cls-12" data-name="Path 1722" transform="translate(-165.46 -170.774)"/>
                        <path id="prefix__Path_1723" d="M196.292 182.6l-15.521 9.016-15.311-8.837 15.521-9.016z" class="prefix__cls-15" data-name="Path 1723" transform="translate(-165.46 -173.76)"/>
                    </g>
                    <g id="prefix__Group_416" class="prefix__cls-1" data-name="Group 416" transform="translate(267.004 271.128)">
                        <path id="prefix__Path_1724" d="M204.331 187.24v2.467l-15.521 9.016v-2.467z" class="prefix__cls-14" data-name="Path 1724" transform="translate(-173.499 -178.403)"/>
                        <path id="prefix__Path_1725" d="M193.881 196.2v2.467l-15.311-8.837v-2.47z" class="prefix__cls-12" data-name="Path 1725" transform="translate(-178.57 -178.344)"/>
                        <path id="prefix__Path_1726" d="M209.4 190.167l-15.521 9.016-15.311-8.837 15.52-9.016z" class="prefix__cls-15" data-name="Path 1726" transform="translate(-178.57 -181.33)"/>
                    </g>
                    <g id="prefix__Group_417" class="prefix__cls-1" data-name="Group 417" transform="translate(286.606 282.447)">
                        <path id="prefix__Path_1727" d="M217.441 194.81v2.467l-15.521 9.016v-2.467z" class="prefix__cls-14" data-name="Path 1727" transform="translate(-186.609 -185.973)"/>
                        <path id="prefix__Path_1728" d="M206.991 203.767v2.467L191.68 197.4v-2.47z" class="prefix__cls-12" data-name="Path 1728" transform="translate(-191.68 -185.914)"/>
                        <path id="prefix__Path_1729" d="M222.512 197.737l-15.521 9.016-15.311-8.837 15.52-9.016z" class="prefix__cls-15" data-name="Path 1729" transform="translate(-191.68 -188.9)"/>
                    </g>
                    <g id="prefix__Group_418" class="prefix__cls-1" data-name="Group 418" transform="translate(306.239 293.781)">
                        <path id="prefix__Path_1730" d="M230.585 202.4l-.015 2.467-15.521 9.016.015-2.467z" class="prefix__cls-14" data-name="Path 1730" transform="translate(-199.739 -193.548)"/>
                        <path id="prefix__Path_1731" d="M220.136 211.362l-.015 2.467-15.311-8.852.015-2.467z" class="prefix__cls-12" data-name="Path 1731" transform="translate(-204.81 -193.494)"/>
                        <path id="prefix__Path_1732" d="M235.652 205.332l-15.521 9.016-15.311-8.848 15.521-9.016z" class="prefix__cls-15" data-name="Path 1732" transform="translate(-204.805 -196.48)"/>
                    </g>
                    <g id="prefix__Group_419" class="prefix__cls-1" data-name="Group 419" transform="translate(325.841 305.1)">
                        <path id="prefix__Path_1733" d="M243.7 209.96l-.015 2.482-15.52 9.016.015-2.467z" class="prefix__cls-14" data-name="Path 1733" transform="translate(-212.849 -201.123)"/>
                        <path id="prefix__Path_1734" d="M233.246 218.932l-.015 2.467-15.311-8.837.015-2.482z" class="prefix__cls-12" data-name="Path 1734" transform="translate(-217.92 -201.064)"/>
                        <path id="prefix__Path_1735" d="M248.762 212.887l-15.521 9.031-15.311-8.852 15.521-9.016z" class="prefix__cls-15" data-name="Path 1735" transform="translate(-217.915 -204.05)"/>
                    </g>
                    <g id="prefix__Group_420" class="prefix__cls-1" data-name="Group 420" transform="translate(345.444 316.419)">
                        <path id="prefix__Path_1736" d="M256.805 217.53l-.014 2.47-15.52 9.031.015-2.482z" class="prefix__cls-14" data-name="Path 1736" transform="translate(-225.959 -208.693)"/>
                        <path id="prefix__Path_1737" d="M246.356 226.487l-.015 2.482-15.311-8.852.015-2.467z" class="prefix__cls-12" data-name="Path 1737" transform="translate(-231.03 -208.634)"/>
                        <path id="prefix__Path_1738" d="M261.872 220.457l-15.521 9.016-15.311-8.837 15.52-9.016z" class="prefix__cls-15" data-name="Path 1738" transform="translate(-231.025 -211.62)"/>
                    </g>
                    <g id="prefix__Group_421" class="prefix__cls-1" data-name="Group 421" transform="translate(365.046 327.738)">
                        <path id="prefix__Path_1739" d="M269.931 225.12v2.467L254.41 236.6v-2.467z" class="prefix__cls-14" data-name="Path 1739" transform="translate(-239.054 -216.253)"/>
                        <path id="prefix__Path_1740" d="M259.5 234.087v2.467l-15.356-8.867.015-2.467z" class="prefix__cls-12" data-name="Path 1740" transform="translate(-244.14 -216.204)"/>
                        <path id="prefix__Path_1741" d="M275.012 228.057l-15.521 9.016-15.341-8.867 15.521-9.016z" class="prefix__cls-15" data-name="Path 1741" transform="translate(-244.135 -219.19)"/>
                    </g>
                    <g id="prefix__Group_422" class="prefix__cls-1" data-name="Group 422" transform="translate(384.694 339.087)">
                        <path id="prefix__Path_1742" d="M283.041 232.69v2.467l-15.521 9.016v-2.467z" class="prefix__cls-14" data-name="Path 1742" transform="translate(-252.209 -223.853)"/>
                        <path id="prefix__Path_1743" d="M272.591 241.647v2.467l-15.311-8.837v-2.467z" class="prefix__cls-12" data-name="Path 1743" transform="translate(-257.28 -223.794)"/>
                        <path id="prefix__Path_1744" d="M288.112 235.617l-15.521 9.016-15.311-8.833 15.52-9.02z" class="prefix__cls-15" data-name="Path 1744" transform="translate(-257.28 -226.78)"/>
                    </g>
                    <g id="prefix__Group_423" class="prefix__cls-1" data-name="Group 423" transform="translate(404.296 350.391)">
                        <path id="prefix__Path_1745" d="M296.151 240.26v2.467l-15.521 9.016v-2.467z" class="prefix__cls-14" data-name="Path 1745" transform="translate(-265.319 -231.408)"/>
                        <path id="prefix__Path_1746" d="M285.7 249.217v2.467l-15.311-8.837v-2.467z" class="prefix__cls-12" data-name="Path 1746" transform="translate(-270.39 -231.349)"/>
                        <path id="prefix__Path_1747" d="M301.222 243.192l-15.522 9.016-15.311-8.837 15.52-9.031z" class="prefix__cls-15" data-name="Path 1747" transform="translate(-270.39 -234.34)"/>
                    </g>
                    <g id="prefix__Group_424" class="prefix__cls-1" data-name="Group 424" transform="translate(423.899 361.71)">
                        <path id="prefix__Path_1748" d="M309.291 247.84l-.015 2.467-15.506 9.016v-2.467z" class="prefix__cls-14" data-name="Path 1748" transform="translate(-278.414 -238.973)"/>
                        <path id="prefix__Path_1749" d="M298.856 256.807v2.467l-15.356-8.867v-2.467z" class="prefix__cls-12" data-name="Path 1749" transform="translate(-283.5 -238.924)"/>
                        <path id="prefix__Path_1750" d="M314.377 250.777l-15.521 9.016-15.356-8.867 15.521-9.016z" class="prefix__cls-15" data-name="Path 1750" transform="translate(-283.5 -241.91)"/>
                    </g>
                    <g id="prefix__Group_425" class="prefix__cls-1" data-name="Group 425" transform="translate(188.369 248.655)">
                        <path id="prefix__Path_1751" d="M164.881 179.79l-.015 2.467-15.506 9.016v-2.467z" class="prefix__cls-14" data-name="Path 1751" transform="translate(-114.401 -159.619)"/>
                        <path id="prefix__Path_1752" d="M160.939 192.5v2.467L125.98 174.8v-2.47z" class="prefix__cls-12" data-name="Path 1752" transform="translate(-125.98 -163.314)"/>
                        <path id="prefix__Path_1753" d="M176.459 186.471l-15.521 9.016-34.958-20.171 15.52-9.016z" class="prefix__cls-15" data-name="Path 1753" transform="translate(-125.98 -166.3)"/>
                    </g>
                    <g id="prefix__Group_426" class="prefix__cls-1" data-name="Group 426" transform="translate(227.619 271.308)">
                        <path id="prefix__Path_1754" d="M177.991 187.36l-.015 2.467-15.506 9.016v-2.467z" class="prefix__cls-14" data-name="Path 1754" transform="translate(-147.159 -178.523)"/>
                        <path id="prefix__Path_1755" d="M167.541 196.317v2.467l-15.311-8.837v-2.467z" class="prefix__cls-12" data-name="Path 1755" transform="translate(-152.23 -178.464)"/>
                        <path id="prefix__Path_1756" d="M183.062 190.287l-15.521 9.013-15.311-8.837 15.521-9.016z" class="prefix__cls-15" data-name="Path 1756" transform="translate(-152.23 -181.45)"/>
                    </g>
                    <g id="prefix__Group_427" class="prefix__cls-1" data-name="Group 427" transform="translate(247.222 282.627)">
                        <path id="prefix__Path_1757" d="M191.1 194.93v2.47l-15.521 9.016v-2.467z" class="prefix__cls-14" data-name="Path 1757" transform="translate(-160.269 -186.093)"/>
                        <path id="prefix__Path_1758" d="M180.651 203.887v2.467l-15.311-8.837v-2.467z" class="prefix__cls-12" data-name="Path 1758" transform="translate(-165.34 -186.034)"/>
                        <path id="prefix__Path_1759" d="M196.172 197.857l-15.521 9.016-15.311-8.837 15.521-9.016z" class="prefix__cls-15" data-name="Path 1759" transform="translate(-165.34 -189.02)"/>
                    </g>
                    <g id="prefix__Group_428" class="prefix__cls-1" data-name="Group 428" transform="translate(266.824 293.946)">
                        <path id="prefix__Path_1760" d="M204.211 202.5l-.015 2.467-15.506 9.016v-2.467z" class="prefix__cls-14" data-name="Path 1760" transform="translate(-173.379 -193.663)"/>
                        <path id="prefix__Path_1761" d="M193.761 211.457v2.467l-15.311-8.837v-2.467z" class="prefix__cls-12" data-name="Path 1761" transform="translate(-178.45 -193.604)"/>
                        <path id="prefix__Path_1762" d="M209.282 205.427l-15.521 9.016-15.311-8.837 15.521-9.016z" class="prefix__cls-15" data-name="Path 1762" transform="translate(-178.45 -196.59)"/>
                    </g>
                    <g id="prefix__Group_429" class="prefix__cls-1" data-name="Group 429" transform="translate(286.457 305.28)">
                        <path id="prefix__Path_1763" d="M217.355 210.08l-.015 2.482-15.521 9.016.015-2.467z" class="prefix__cls-14" data-name="Path 1763" transform="translate(-186.509 -201.243)"/>
                        <path id="prefix__Path_1764" d="M206.906 219.052l-.015 2.467-15.311-8.852.015-2.467z" class="prefix__cls-12" data-name="Path 1764" transform="translate(-191.58 -201.184)"/>
                        <path id="prefix__Path_1765" d="M222.422 213.007l-15.522 9.031-15.311-8.852 15.521-9.016z" class="prefix__cls-15" data-name="Path 1765" transform="translate(-191.575 -204.17)"/>
                    </g>
                    <g id="prefix__Group_430" class="prefix__cls-1" data-name="Group 430" transform="translate(306.059 316.598)">
                        <path id="prefix__Path_1766" d="M230.465 217.65l-.015 2.467-15.521 9.031.015-2.467z" class="prefix__cls-14" data-name="Path 1766" transform="translate(-199.619 -208.813)"/>
                        <path id="prefix__Path_1767" d="M220.016 226.622l-.016 2.467-15.311-8.852.015-2.467z" class="prefix__cls-12" data-name="Path 1767" transform="translate(-204.69 -208.754)"/>
                        <path id="prefix__Path_1768" d="M235.532 220.577l-15.521 9.031-15.311-8.852 15.521-9.016z" class="prefix__cls-15" data-name="Path 1768" transform="translate(-204.685 -211.74)"/>
                    </g>
                    <g id="prefix__Group_431" class="prefix__cls-1" data-name="Group 431" transform="translate(325.662 327.917)">
                        <path id="prefix__Path_1769" d="M243.575 225.22l-.015 2.467-15.521 9.031.015-2.482z" class="prefix__cls-14" data-name="Path 1769" transform="translate(-212.729 -216.383)"/>
                        <path id="prefix__Path_1770" d="M233.126 234.177l-.015 2.482-15.311-8.852.015-2.467z" class="prefix__cls-12" data-name="Path 1770" transform="translate(-217.8 -216.324)"/>
                        <path id="prefix__Path_1771" d="M248.642 228.147l-15.521 9.016-15.311-8.837 15.521-9.016z" class="prefix__cls-15" data-name="Path 1771" transform="translate(-217.795 -219.31)"/>
                    </g>
                    <g id="prefix__Group_432" class="prefix__cls-1" data-name="Group 432" transform="translate(345.264 339.236)">
                        <path id="prefix__Path_1772" d="M256.7 232.81v2.467l-15.521 9.016v-2.467z" class="prefix__cls-14" data-name="Path 1772" transform="translate(-225.824 -223.943)"/>
                        <path id="prefix__Path_1773" d="M246.266 241.777v2.467l-15.356-8.867.015-2.467z" class="prefix__cls-12" data-name="Path 1773" transform="translate(-230.91 -223.894)"/>
                        <path id="prefix__Path_1774" d="M261.782 235.747l-15.521 9.016-15.341-8.863 15.521-9.016z" class="prefix__cls-15" data-name="Path 1774" transform="translate(-230.905 -226.88)"/>
                    </g>
                    <g id="prefix__Group_433" class="prefix__cls-1" data-name="Group 433" transform="translate(364.912 350.57)">
                        <path id="prefix__Path_1775" d="M269.811 240.38v2.467l-15.521 9.016V249.4z" class="prefix__cls-14" data-name="Path 1775" transform="translate(-238.979 -231.528)"/>
                        <path id="prefix__Path_1776" d="M259.361 249.337v2.463l-15.311-8.837V240.5z" class="prefix__cls-12" data-name="Path 1776" transform="translate(-244.05 -231.469)"/>
                        <path id="prefix__Path_1777" d="M274.882 243.312l-15.521 9.016-15.311-8.837 15.521-9.031z" class="prefix__cls-15" data-name="Path 1777" transform="translate(-244.05 -234.46)"/>
                    </g>
                    <g id="prefix__Group_434" class="prefix__cls-1" data-name="Group 434" transform="translate(384.514 361.889)">
                        <path id="prefix__Path_1778" d="M296.061 255.53l-.015 2.47-15.505 9.016v-2.467z" class="prefix__cls-14" data-name="Path 1778" transform="translate(-245.581 -235.344)"/>
                        <path id="prefix__Path_1779" d="M292.119 268.246v2.467l-34.959-20.171v-2.482z" class="prefix__cls-12" data-name="Path 1779" transform="translate(-257.16 -239.044)"/>
                        <path id="prefix__Path_1780" d="M307.639 262.216l-15.52 9.016-34.959-20.186 15.521-9.016z" class="prefix__cls-15" data-name="Path 1780" transform="translate(-257.16 -242.03)"/>
                    </g>
                    <g id="prefix__Group_435" class="prefix__cls-1" data-name="Group 435" transform="translate(168.588 260.153)">
                        <path id="prefix__Path_1781" d="M164.761 195.05l-.015 2.467-15.506 9.016v-2.467z" class="prefix__cls-14" data-name="Path 1781" transform="translate(-94.679 -163.56)"/>
                        <path id="prefix__Path_1782" d="M167.311 211.51v2.467l-54.561-31.49v-2.467z" class="prefix__cls-12" data-name="Path 1782" transform="translate(-112.75 -171.004)"/>
                        <path id="prefix__Path_1783" d="M182.832 205.48l-15.52 9.016-54.561-31.49 15.521-9.016z" class="prefix__cls-15" data-name="Path 1783" transform="translate(-112.75 -173.99)"/>
                    </g>
                    <g id="prefix__Group_436" class="prefix__cls-1" data-name="Group 436" transform="translate(227.425 294.125)">
                        <path id="prefix__Path_1784" d="M177.875 202.62l-.015 2.467-15.52 9.013.015-2.467z" class="prefix__cls-14" data-name="Path 1784" transform="translate(-147.029 -193.783)"/>
                        <path id="prefix__Path_1785" d="M167.426 211.577l-.015 2.467-15.311-8.837.015-2.467z" class="prefix__cls-12" data-name="Path 1785" transform="translate(-152.1 -193.724)"/>
                        <path id="prefix__Path_1786" d="M182.942 205.547l-15.521 9.016-15.311-8.837 15.521-9.016z" class="prefix__cls-15" data-name="Path 1786" transform="translate(-152.095 -196.71)"/>
                    </g>
                    <g id="prefix__Group_437" class="prefix__cls-1" data-name="Group 437" transform="translate(247.042 305.444)">
                        <path id="prefix__Path_1787" d="M190.981 210.19v2.467l-15.52 9.016v-2.467z" class="prefix__cls-14" data-name="Path 1787" transform="translate(-160.149 -201.353)"/>
                        <path id="prefix__Path_1788" d="M180.531 219.147v2.467l-15.311-8.837v-2.467z" class="prefix__cls-12" data-name="Path 1788" transform="translate(-165.22 -201.294)"/>
                        <path id="prefix__Path_1789" d="M196.052 213.117l-15.52 9.016-15.312-8.833 15.521-9.016z" class="prefix__cls-15" data-name="Path 1789" transform="translate(-165.22 -204.28)"/>
                    </g>
                    <g id="prefix__Group_438" class="prefix__cls-1" data-name="Group 438" transform="translate(266.675 316.778)">
                        <path id="prefix__Path_1790" d="M204.111 217.77v2.467l-15.521 9.031.015-2.482z" class="prefix__cls-14" data-name="Path 1790" transform="translate(-173.279 -208.933)"/>
                        <path id="prefix__Path_1791" d="M193.676 226.727l-.015 2.482-15.311-8.852.015-2.467z" class="prefix__cls-12" data-name="Path 1791" transform="translate(-178.35 -208.874)"/>
                        <path id="prefix__Path_1792" d="M209.177 220.7l-15.506 9.016-15.311-8.837 15.521-9.016z" class="prefix__cls-15" data-name="Path 1792" transform="translate(-178.345 -211.86)"/>
                    </g>
                    <g id="prefix__Group_439" class="prefix__cls-1" data-name="Group 439" transform="translate(286.277 328.097)">
                        <path id="prefix__Path_1793" d="M217.235 225.34l-.015 2.467-15.52 9.016.015-2.467z" class="prefix__cls-14" data-name="Path 1793" transform="translate(-186.389 -216.503)"/>
                        <path id="prefix__Path_1794" d="M206.786 234.3l-.015 2.467-15.311-8.837.015-2.467z" class="prefix__cls-12" data-name="Path 1794" transform="translate(-191.46 -216.444)"/>
                        <path id="prefix__Path_1795" d="M222.3 228.267l-15.52 9.016-15.311-8.837 15.521-9.016z" class="prefix__cls-15" data-name="Path 1795" transform="translate(-191.455 -219.43)"/>
                    </g>
                    <g id="prefix__Group_440" class="prefix__cls-1" data-name="Group 440" transform="translate(305.88 339.416)">
                        <path id="prefix__Path_1796" d="M230.345 232.91l-.015 2.467-15.52 9.016.015-2.467z" class="prefix__cls-14" data-name="Path 1796" transform="translate(-199.499 -224.073)"/>
                        <path id="prefix__Path_1797" d="M219.9 241.867l-.015 2.467-15.315-8.834.015-2.467z" class="prefix__cls-12" data-name="Path 1797" transform="translate(-204.57 -224.014)"/>
                        <path id="prefix__Path_1798" d="M235.412 235.837l-15.521 9.016-15.311-8.837L220.1 227z" class="prefix__cls-15" data-name="Path 1798" transform="translate(-204.565 -227)"/>
                    </g>
                    <g id="prefix__Group_441" class="prefix__cls-1" data-name="Group 441" transform="translate(325.482 350.735)">
                        <path id="prefix__Path_1799" d="M243.471 240.5v2.467l-15.521 9.016v-2.467z" class="prefix__cls-14" data-name="Path 1799" transform="translate(-212.594 -231.633)"/>
                        <path id="prefix__Path_1800" d="M233.036 249.467v2.467l-15.356-8.867.015-2.467z" class="prefix__cls-12" data-name="Path 1800" transform="translate(-217.68 -231.584)"/>
                        <path id="prefix__Path_1801" d="M248.552 243.437l-15.521 9.016-15.341-8.867 15.521-9.016z" class="prefix__cls-15" data-name="Path 1801" transform="translate(-217.675 -234.57)"/>
                    </g>
                    <g id="prefix__Group_442" class="prefix__cls-1" data-name="Group 442" transform="translate(345.13 362.068)">
                        <path id="prefix__Path_1802" d="M256.581 248.06v2.482l-15.521 9.016v-2.467z" class="prefix__cls-14" data-name="Path 1802" transform="translate(-225.749 -239.223)"/>
                        <path id="prefix__Path_1803" d="M246.131 257.032v2.468l-15.311-8.852v-2.468z" class="prefix__cls-12" data-name="Path 1803" transform="translate(-230.82 -239.164)"/>
                        <path id="prefix__Path_1804" d="M261.652 250.987l-15.521 9.031-15.311-8.852 15.521-9.016z" class="prefix__cls-15" data-name="Path 1804" transform="translate(-230.82 -242.15)"/>
                    </g>
                    <g id="prefix__Group_443" class="prefix__cls-1" data-name="Group 443" transform="translate(364.732 373.387)">
                        <path id="prefix__Path_1805" d="M282.831 263.22l-.015 2.467-15.506 9.013v-2.467z" class="prefix__cls-14" data-name="Path 1805" transform="translate(-232.351 -243.034)"/>
                        <path id="prefix__Path_1806" d="M278.889 275.936v2.464l-34.959-20.183v-2.467z" class="prefix__cls-12" data-name="Path 1806" transform="translate(-243.93 -246.734)"/>
                        <path id="prefix__Path_1807" d="M294.409 269.906l-15.521 9.016-34.958-20.186 15.521-9.016z" class="prefix__cls-15" data-name="Path 1807" transform="translate(-243.93 -249.72)"/>
                    </g>
                    <g id="prefix__Group_444" class="prefix__cls-1" data-name="Group 444" transform="translate(148.761 271.637)">
                        <path id="prefix__Path_1808" d="M125.3 187.59v2.467l-15.565 9.031.015-2.467z" class="prefix__cls-14" data-name="Path 1808" transform="translate(-94.419 -178.738)"/>
                        <path id="prefix__Path_1809" d="M114.816 196.557l-.015 2.467-15.311-8.837.015-2.467z" class="prefix__cls-12" data-name="Path 1809" transform="translate(-99.49 -178.674)"/>
                        <path id="prefix__Path_1810" d="M130.362 190.522l-15.55 9.031-15.312-8.837 15.55-9.046z" class="prefix__cls-15" data-name="Path 1810" transform="translate(-99.485 -181.67)"/>
                    </g>
                    <g id="prefix__Group_445" class="prefix__cls-1" data-name="Group 445" transform="translate(168.363 282.956)">
                        <path id="prefix__Path_1811" d="M138.435 195.17l-.015 2.467-15.55 9.046v-2.467z" class="prefix__cls-14" data-name="Path 1811" transform="translate(-107.514 -186.303)"/>
                        <path id="prefix__Path_1812" d="M127.956 204.157v2.467l-15.356-8.867.015-2.467z" class="prefix__cls-12" data-name="Path 1812" transform="translate(-112.6 -186.244)"/>
                        <path id="prefix__Path_1813" d="M143.516 198.107l-15.565 9.046-15.341-8.867 15.55-9.046z" class="prefix__cls-15" data-name="Path 1813" transform="translate(-112.595 -189.24)"/>
                    </g>
                    <g id="prefix__Group_446" class="prefix__cls-1" data-name="Group 446" transform="translate(188.011 294.305)">
                        <path id="prefix__Path_1814" d="M151.545 202.74l-.015 2.467-15.55 9.046v-2.482z" class="prefix__cls-14" data-name="Path 1814" transform="translate(-120.669 -193.903)"/>
                        <path id="prefix__Path_1815" d="M141.051 211.707v2.482l-15.311-8.852v-2.467z" class="prefix__cls-12" data-name="Path 1815" transform="translate(-125.74 -193.839)"/>
                        <path id="prefix__Path_1816" d="M156.617 205.667l-15.566 9.033-15.311-8.837 15.565-9.031z" class="prefix__cls-15" data-name="Path 1816" transform="translate(-125.74 -196.83)"/>
                    </g>
                    <g id="prefix__Group_447" class="prefix__cls-1" data-name="Group 447" transform="translate(207.613 305.623)">
                        <path id="prefix__Path_1817" d="M217.125 240.6l-.015 2.467-15.55 9.046v-2.467z" class="prefix__cls-14" data-name="Path 1817" transform="translate(-107.794 -186.473)"/>
                        <path id="prefix__Path_1818" d="M232.616 264.582v2.467l-93.766-54.142v-2.467z" class="prefix__cls-12" data-name="Path 1818" transform="translate(-138.85 -201.409)"/>
                        <path id="prefix__Path_1819" d="M248.181 258.527l-15.565 9.046-93.766-54.142 15.565-9.031z" class="prefix__cls-15" data-name="Path 1819" transform="translate(-138.85 -204.4)"/>
                    </g>
                    <g id="prefix__Group_448" class="prefix__cls-1" data-name="Group 448" transform="translate(305.67 362.233)">
                        <path id="prefix__Path_1820" d="M230.255 248.18v2.482l-15.565 9.031.015-2.467z" class="prefix__cls-14" data-name="Path 1820" transform="translate(-199.349 -239.328)"/>
                        <path id="prefix__Path_1821" d="M219.786 257.167l-.015 2.467-15.341-8.867V248.3z" class="prefix__cls-12" data-name="Path 1821" transform="translate(-204.43 -239.269)"/>
                        <path id="prefix__Path_1822" d="M235.336 251.112l-15.55 9.046-15.356-8.867L220 242.26z" class="prefix__cls-15" data-name="Path 1822" transform="translate(-204.43 -242.26)"/>
                    </g>
                    <g id="prefix__Group_449" class="prefix__cls-1" data-name="Group 449" transform="translate(325.303 373.567)">
                        <path id="prefix__Path_1823" d="M243.365 255.75v2.467l-15.565 9.046.015-2.467z" class="prefix__cls-14" data-name="Path 1823" transform="translate(-212.489 -246.913)"/>
                        <path id="prefix__Path_1824" d="M232.886 264.727l-.015 2.467-15.311-8.837.015-2.467z" class="prefix__cls-12" data-name="Path 1824" transform="translate(-217.56 -246.844)"/>
                        <path id="prefix__Path_1825" d="M248.432 258.677l-15.55 9.046-15.311-8.837 15.55-9.046z" class="prefix__cls-15" data-name="Path 1825" transform="translate(-217.555 -249.84)"/>
                    </g>
                    <g id="prefix__Group_450" class="prefix__cls-1" data-name="Group 450" transform="translate(344.905 384.886)">
                        <path id="prefix__Path_1826" d="M269.615 270.91l-.015 2.467-15.55 9.031v-2.467z" class="prefix__cls-14" data-name="Path 1826" transform="translate(-219.091 -250.724)"/>
                        <path id="prefix__Path_1827" d="M265.629 283.631v2.469l-34.959-20.173.015-2.467z" class="prefix__cls-12" data-name="Path 1827" transform="translate(-230.67 -254.414)"/>
                        <path id="prefix__Path_1828" d="M281.189 277.6l-15.565 9.031-34.944-20.175 15.55-9.046z" class="prefix__cls-15" data-name="Path 1828" transform="translate(-230.665 -257.41)"/>
                    </g>
                    <path id="prefix__Path_1829" d="M253.524 95.119c32.088 18.526 58.03 63.458 57.925 100.33s-26.211 51.72-58.314 33.194-58.03-63.428-57.925-100.3 26.226-51.75 58.314-33.224z" data-name="Path 1829" transform="translate(96.674 43.158)" style="fill:#2e49e5"/>
                    <path id="prefix__Path_1830" d="M287.53 225.251l-12.336 7.177c10.467-6.056 16.881-18.93 16.941-37.246.1-36.872-25.838-81.8-57.925-100.33l12.351-7.162c32.088 18.526 58.015 63.443 57.91 100.315-.045 18.272-6.504 31.195-16.941 37.246z" class="prefix__cls-17" data-name="Path 1830" transform="translate(115.988 43.425)"/>
                    <path id="prefix__Path_1831" d="M219.65 122.007L232 114.83l39.833 49.552-12.333 7.177z" class="prefix__cls-11" data-name="Path 1831" transform="translate(108.778 56.865)"/>
                    <path id="prefix__Path_1832" d="M219.7 119.63l39.848 49.552-40 3.409z" class="prefix__cls-10" data-name="Path 1832" transform="translate(108.728 59.243)"/>
                    <path id="prefix__Path_1833" d="M206.56 93.457l12.34-7.177c10.571-6.145 25.21-5.278 41.358 4.052L247.9 97.494c-16.145-9.315-30.784-10.182-41.34-4.037z" class="prefix__cls-17" data-name="Path 1833" transform="translate(102.295 40.783)"/>
                    <path id="prefix__Path_1834" d="M286.3 370.791l106.64-61.574-66.55-38.427-106.64 61.574z" class="prefix__cls-18" data-name="Path 1834" transform="translate(108.827 134.102)"/>
                    <path id="prefix__Path_1835" d="M370.9 301.275l-106.64 61.573v-4.785L370.9 296.49z" class="prefix__cls-2" data-name="Path 1835" transform="translate(130.87 146.829)"/>
                    <path id="prefix__Path_1836" d="M286.3 355.182l-66.55-38.427v-4.785l66.55 38.43z" class="prefix__cls-4" data-name="Path 1836" transform="translate(108.827 154.496)"/>
                    <path id="prefix__Path_1837" d="M286.3 355.421l106.64-61.574-66.55-38.427-106.64 61.574z" class="prefix__cls-3" data-name="Path 1837" transform="translate(108.827 126.49)"/>
                    <path id="prefix__Path_1838" d="M225.9 300.144v27.931l-6.145-3.544V296.6z" class="prefix__cls-4" data-name="Path 1838" transform="translate(108.827 146.884)"/>
                    <path id="prefix__Path_1839" d="M264.26 345.344v14.922l103.664-59.929V285.43z" class="prefix__cls-5" data-name="Path 1839" transform="translate(130.87 141.352)"/>
                    <path id="prefix__Path_1840" d="M286.3 339.812l-66.55-38.427V296.6l66.55 38.427z" class="prefix__cls-4" data-name="Path 1840" transform="translate(108.827 146.884)"/>
                    <path id="prefix__Path_1841" d="M370.9 285.92l-106.64 61.558v-4.785L370.9 281.12z" class="prefix__cls-2" data-name="Path 1841" transform="translate(130.87 139.218)"/>
                    <path id="prefix__Path_1842" d="M284.267 337.054L223.86 302.17v14.908l60.407 34.9z" class="prefix__cls-19" data-name="Path 1842" transform="translate(110.863 149.642)"/>
                    <path id="prefix__Path_1843" d="M262.042 341.412l106.64-61.574-12.022-6.938-106.64 61.574z" data-name="Path 1843" transform="translate(123.818 135.147)" style="fill:#96521f"/>
                    <path id="prefix__Path_1844" d="M286.3 352.271L392.943 290.7l-66.553-38.43-106.64 61.574z" class="prefix__cls-7" data-name="Path 1844" transform="translate(108.827 124.93)"/>
                    <path id="prefix__Path_1845" d="M370.9 282.77l-106.64 61.573v-4.8L370.9 277.97z" class="prefix__cls-8" data-name="Path 1845" transform="translate(130.87 137.658)"/>
                    <path id="prefix__Path_1846" d="M286.3 336.677l-66.55-38.442v-4.785l66.55 38.427z" class="prefix__cls-9" data-name="Path 1846" transform="translate(108.827 145.324)"/>
                    <path id="prefix__Path_1847" d="M286.3 336.9l106.64-61.559-66.55-38.431-106.64 61.559z" class="prefix__cls-7" data-name="Path 1847" transform="translate(108.827 117.323)"/>
                    <path id="prefix__Path_1848" d="M225.9 281.639v27.931l-6.145-3.559V278.08z" class="prefix__cls-9" data-name="Path 1848" transform="translate(108.827 137.712)"/>
                    <path id="prefix__Path_1849" d="M264.26 326.834v14.907l103.664-59.914V266.92z" class="prefix__cls-5" data-name="Path 1849" transform="translate(130.87 132.185)"/>
                    <path id="prefix__Path_1850" d="M286.3 321.307l-66.55-38.427v-4.8l66.55 38.427z" class="prefix__cls-9" data-name="Path 1850" transform="translate(108.827 137.712)"/>
                    <path id="prefix__Path_1851" d="M370.9 267.395l-106.64 61.573v-4.8L370.9 262.61z" class="prefix__cls-8" data-name="Path 1851" transform="translate(130.87 130.051)"/>
                    <path id="prefix__Path_1852" d="M284.267 318.549l-60.407-34.9v14.908l60.407 34.9z" class="prefix__cls-19" data-name="Path 1852" transform="translate(110.863 140.471)"/>
                    <path id="prefix__Path_1853" d="M262.042 322.887l106.64-61.559-12.022-6.938-106.64 61.559z" class="prefix__cls-21" data-name="Path 1853" transform="translate(123.818 125.98)"/>
                    <path id="prefix__Path_1854" d="M186.883 325.764l-21.247 12.261L18.37 253.006l21.262-12.276z" class="prefix__cls-21" data-name="Path 1854" transform="translate(9.097 119.215)"/>
                    <path id="prefix__Path_1855" d="M42.145 237.04l147.265 85.019-9.569 5.532L32.59 242.557z" class="prefix__cls-22" data-name="Path 1855" transform="translate(16.14 117.388)"/>
                    <path id="prefix__Path_1856" d="M18.37 254.233l147.265 85.019v-5.293L18.37 248.94z" class="prefix__cls-5" data-name="Path 1856" transform="translate(9.097 123.281)"/>
                    <path id="prefix__Path_1857" d="M147.677 293.9l-30.817 17.793v5.293l30.817-17.793z" class="prefix__cls-19" data-name="Path 1857" transform="translate(57.873 145.547)"/>
                    <path id="prefix__Path_1858" d="M98.245 289.231l-6.041 3.5-1.944-1.121 6.056-3.5z" class="prefix__cls-22" data-name="Path 1858" transform="translate(44.7 142.679)"/>
                    <path id="prefix__Path_1859" d="M94.942 283.581l-9.928 5.742-1.944-1.123 9.93-5.74z" class="prefix__cls-22" data-name="Path 1859" transform="translate(41.139 139.881)"/>
                    <path id="prefix__Path_1860" d="M83.875 280.931l-6.056 3.484-1.929-1.121 6.041-3.484z" class="prefix__cls-22" data-name="Path 1860" transform="translate(37.583 138.569)"/>
                    <path id="prefix__Path_1861" d="M109.322 291.881l-9.928 5.742-1.944-1.123 9.928-5.742z" class="prefix__cls-22" data-name="Path 1861" transform="translate(48.26 143.992)"/>
                    <path id="prefix__Path_1862" d="M123.7 300.181l-9.928 5.742-1.942-1.123 9.928-5.742z" class="prefix__cls-22" data-name="Path 1862" transform="translate(55.382 148.102)"/>
                    <path id="prefix__Path_1863" d="M112.625 297.531l-6.041 3.5-1.944-1.121 6.041-3.5z" class="prefix__cls-22" data-name="Path 1863" transform="translate(51.821 146.79)"/>
                    <path id="prefix__Path_1864" d="M80.572 275.281l-9.943 5.742L68.7 279.9l9.928-5.742z" class="prefix__cls-22" data-name="Path 1864" transform="translate(34.023 135.771)"/>
                    <path id="prefix__Path_1865" d="M40.735 256.031l-6.041 3.484-1.944-1.121 6.041-3.484z" class="prefix__cls-22" data-name="Path 1865" transform="translate(16.219 126.238)"/>
                    <path id="prefix__Path_1866" d="M37.432 250.381l-9.932 5.727-1.944-1.121 9.928-5.727z" class="prefix__cls-22" data-name="Path 1866" transform="translate(12.658 123.44)"/>
                    <path id="prefix__Path_1867" d="M69.495 272.631l-6.056 3.484-1.929-1.121 6.041-3.484z" class="prefix__cls-22" data-name="Path 1867" transform="translate(30.462 134.459)"/>
                    <path id="prefix__Path_1868" d="M51.812 258.681l-9.928 5.727-1.944-1.121 9.928-5.727z" class="prefix__cls-22" data-name="Path 1868" transform="translate(19.78 127.55)"/>
                    <path id="prefix__Path_1869" d="M66.192 266.981l-9.928 5.727-1.944-1.121 9.928-5.727z" class="prefix__cls-22" data-name="Path 1869" transform="translate(26.901 131.66)"/>
                    <path id="prefix__Path_1870" d="M55.115 264.331l-6.041 3.484-1.944-1.121 6.041-3.484z" class="prefix__cls-22" data-name="Path 1870" transform="translate(23.34 130.348)"/>
                    <path id="prefix__Path_1871" d="M255.243 347.78v6.758L170.03 403.4v-6.788z" class="prefix__cls-23" data-name="Path 1871" transform="translate(84.204 172.23)"/>
                    <path id="prefix__Path_1872" d="M282.937 363.781l-85.213 48.834-83.614-48.281 85.213-48.864z" class="prefix__cls-6" data-name="Path 1872" transform="translate(56.511 156.229)"/>
                    <path id="prefix__Path_1873" d="M197.723 396.431v6.788l-83.613-48.31v-6.759z" class="prefix__cls-12" data-name="Path 1873" transform="translate(56.511 172.413)"/>
                    <path id="prefix__Path_1874" d="M185.607 386.813a61.8 61.8 0 0 1-30.443-7.476c-10.3-5.981-15.984-14.534-15.984-24.193s5.682-18.257 15.984-24.208a65.985 65.985 0 0 1 60.9 0c10.287 5.981 15.969 14.534 15.969 24.208s-5.682 18.257-15.984 24.193a61.8 61.8 0 0 1-30.443 7.476z" class="prefix__cls-21" data-name="Path 1874" transform="translate(68.927 160.201)"/>
                    <path id="prefix__Path_1875" d="M185.607 385.3a61.8 61.8 0 0 1-30.443-7.476c-10.3-5.981-15.984-14.549-15.984-24.208s5.712-18.167 15.984-24.148a65.985 65.985 0 0 1 60.9 0c10.287 5.981 15.969 14.549 15.969 24.208s-5.682 18.257-15.984 24.208a61.8 61.8 0 0 1-30.443 7.416z" class="prefix__cls-11" data-name="Path 1875" transform="translate(68.927 159.473)"/>
                    <path id="prefix__Path_1876" d="M192.272 353.626v-5.846c4.964 0 8.971-5.517 10.96-10.616 2.482-6.205 2.362-12.126.688-13.756-3.783-3.693-10.317 1.854-10.392 1.914l-3.828-4.486c3.663-3.185 12.2-7.626 18.3-1.675 4.336 4.217 3.454 13.143.658 20.111-3.558 8.928-9.703 14.279-16.386 14.354z" class="prefix__cls-5" data-name="Path 1876" transform="translate(93.946 156.605)"/>
                    <path id="prefix__Path_1877" d="M146.86 320.53v33.852c0 5.159 3.409 10.332 10.227 14.265 13.651 7.88 35.781 7.88 49.432 0 6.818-3.932 10.242-9.106 10.242-14.265V320.53z" class="prefix__cls-24" data-name="Path 1877" transform="translate(72.73 158.735)"/>
                    <path id="prefix__Path_1878" d="M206.524 341.491c-13.652 7.88-35.781 7.88-49.432 0s-13.651-20.664 0-28.544 35.781-7.88 49.432 0 13.651 20.665 0 28.544z" data-name="Path 1878" transform="translate(72.726 152.053)" style="fill:#f0f5f7"/>
                    <path id="prefix__Path_1879" d="M180.858 343.575a47.279 47.279 0 0 1-23.281-5.532c-5.682-3.275-8.807-7.476-8.807-11.782s3.125-8.508 8.807-11.782a51.87 51.87 0 0 1 46.562 0c5.682 3.275 8.807 7.476 8.807 11.783s-3.125 8.508-8.807 11.8a47.43 47.43 0 0 1-23.281 5.517z" class="prefix__cls-11" data-name="Path 1879" transform="translate(73.676 153.005)"/>
                    <path id="prefix__Path_1880" d="M203.445 322.512a51.75 51.75 0 0 0-46.562 0 20.709 20.709 0 0 0-6.714 5.787 20.933 20.933 0 0 0 6.714 5.772 51.81 51.81 0 0 0 46.562 0 21.083 21.083 0 0 0 6.714-5.786 20.708 20.708 0 0 0-6.714-5.772z" class="prefix__cls-6" data-name="Path 1880" transform="translate(74.369 156.977)"/>
                    <path id="prefix__Path_1881" d="M0 264.25l11.364 13.023 5.607-9.7z" class="prefix__cls-26" data-name="Path 1881" transform="translate(0 130.863)"/>
                    <path id="prefix__Path_1882" d="M0 264.25l3.125 3.574 1.54-2.662z" class="prefix__cls-6" data-name="Path 1882" transform="translate(0 130.863)"/>
                    <path id="prefix__Path_1883" d="M13.6 266.556a2.856 2.856 0 0 0-2.841.269 8.732 8.732 0 0 0-3.944 6.875 2.766 2.766 0 0 0 1.151 2.542l83.045 48.266a2.811 2.811 0 0 1-1.151-2.557 8.732 8.732 0 0 1 3.962-6.863 2.781 2.781 0 0 1 2.841-.269z" class="prefix__cls-8" data-name="Path 1883" transform="translate(3.368 131.877)"/>
                    <path id="prefix__Path_1884" d="M66.317 299.111c2.2-1.271 3.992-.254 3.992 2.273a8.7 8.7 0 0 1-3.992 6.8c-2.2 1.271-3.977.254-3.977-2.273a8.732 8.732 0 0 1 3.977-6.8z" class="prefix__cls-9" data-name="Path 1884" transform="translate(30.873 147.856)"/>
                    <path id="prefix__Path_1885" d="M26.85 268.86l11.364 13.023 5.592-9.7z" class="prefix__cls-26" data-name="Path 1885" transform="translate(13.297 133.146)"/>
                    <path id="prefix__Path_1886" d="M26.85 268.86l3.11 3.574 1.54-2.662z" class="prefix__cls-6" data-name="Path 1886" transform="translate(13.297 133.146)"/>
                    <path id="prefix__Path_1887" d="M40.442 271.165a2.8 2.8 0 0 0-2.826.284 8.7 8.7 0 0 0-3.962 6.863 2.811 2.811 0 0 0 1.166 2.542l53.589 31.191a2.781 2.781 0 0 1-1.166-2.557 8.747 8.747 0 0 1 3.962-6.863 2.826 2.826 0 0 1 2.826-.269z" class="prefix__cls-2" data-name="Path 1887" transform="translate(16.661 134.16)"/>
                    <path id="prefix__Path_1888" d="M73.452 292.3c2.2-1.256 3.977-.254 3.992 2.273a8.777 8.777 0 0 1-3.962 6.863c-2.2 1.271-3.977.254-3.992-2.273a8.747 8.747 0 0 1 3.962-6.863z" class="prefix__cls-4" data-name="Path 1888" transform="translate(34.414 144.486)"/>
                    <path id="prefix__Path_1889" d="M31.9 301.35a3.843 3.843 0 0 1-2.258-3.17v6.37a3.888 3.888 0 0 0 2.273 3.17l3.633 2.153V303.5z" class="prefix__cls-27" data-name="Path 1889" transform="translate(14.679 147.666)"/>
                    <path id="prefix__Path_1890" d="M44.445 297.5l-.015 6.37-10.84 6.295.03-6.37z" class="prefix__cls-28" data-name="Path 1890" transform="translate(16.635 147.33)"/>
                    <path id="prefix__Path_1891" d="M46.4 298.631l-10.825 6.295-3.678-2.108c-2.99-1.734-2.99-4.56 0-6.295a11.962 11.962 0 0 1 10.87 0z" class="prefix__cls-28" data-name="Path 1891" transform="translate(14.684 146.199)"/>
                    <path id="prefix__Path_1892" d="M49.49 300.42l-.015 6.37-10.825 6.295.015-6.37z" data-name="Path 1892" transform="translate(19.141 148.776)" style="fill:#6dc1b4"/>
                    <path id="prefix__Path_1893" d="M41.171 306.076l-.015 6.37-7.566-4.366.03-6.37z" class="prefix__cls-4" data-name="Path 1893" transform="translate(16.635 149.415)"/>
                    <path id="prefix__Path_1894" d="M51.986 301.866l-10.825 6.295-7.551-4.366 10.825-6.295z" class="prefix__cls-2" data-name="Path 1894" transform="translate(16.645 147.33)"/>
                    <path id="prefix__Path_1895" d="M53.194 307.065a11.962 11.962 0 0 1-10.87 0l-3.663-2.123v6.37l3.663 2.123a11.962 11.962 0 0 0 10.87 0 3.828 3.828 0 0 0 2.228-3.125V304a3.828 3.828 0 0 1-2.228 3.065z" class="prefix__cls-27" data-name="Path 1895" transform="translate(19.146 150.549)"/>
                    <path id="prefix__Path_1896" d="M53.174 302.543c2.99 1.734 2.99 4.486 0 6.295a11.962 11.962 0 0 1-10.87 0l-3.663-2.123 10.825-6.295z" class="prefix__cls-28" data-name="Path 1896" transform="translate(19.136 148.776)"/>
                    <path id="prefix__Path_1897" d="M38.711 122.146c-1.944-4.889-5.338-7.476-8.343-5.652s1.66 15.1 3.155 19.692 1.989 7.282 3.349 8.343 13.951 16.014 13.951 16.014a14.638 14.638 0 0 0-.254 5.547c.583 1.824 1.361 4.022 1.974 3.768s.374-3.275.882-3.379 1.047 2.736.927 3.544-1.944 3.828-1.5 4.486 2.736-1.121 3.843-2.467a6.489 6.489 0 0 0 1.5-4.217c-.1-1-.464-3.23-.464-3.23l-2.736-5.188-9.958-17.943z" class="prefix__cls-30" data-name="Path 1897" transform="translate(14.549 57.399)"/>
                    <path id="prefix__Path_1898" d="M38.142 124.4s3.275 9.824 4.486 11.962 2.632 4.486 2.632 4.486a8.373 8.373 0 0 1-3.559 4.007l-2.407 1.166s-3.962-2.99-4.486-4.381.912-11.125.912-11.125z" class="prefix__cls-4" data-name="Path 1898" transform="translate(17.181 61.605)"/>
                    <path id="prefix__Path_1899" d="M43.979 135.43a2.078 2.078 0 0 1 1.331 2.123 8.523 8.523 0 0 1-2.168 2.99 9.749 9.749 0 0 1-3.932 2.273 7.9 7.9 0 0 1-1.869-2.826 27.948 27.948 0 0 0 4.486-2.632z" class="prefix__cls-18" data-name="Path 1899" transform="translate(18.492 67.067)"/>
                    <path id="prefix__Path_1900" d="M47.15 247.341c.314 2.632-7.611 1.974-9.749.643s-3.813-3.962-5.293-5.114-2.8-1.166-2.99-2.318c0-.329-.135-1.286-.224-2.587a105.65 105.65 0 0 1-.269-12.276c.329-5.293-.434-17.494.493-23.774.135-.9.239-1.824.344-2.8.449-4.815.464-10.392.613-13.681.179-3.962-.778-19.692-.778-19.692s-.987-18.182-.987-22.428c0-1.5 1.166-2.243 2.736-2.632a23.387 23.387 0 0 1 7.656-.179c5.458 25.763 3.26 40.282 3.14 48.4-.1 7.267-2.138 11.887-2.99 19.976s-2.482 19.438-2.138 23.61c.224 2.781 4.71 7.386 7.73 10.87a11.469 11.469 0 0 1 2.706 3.977z" class="prefix__cls-31" data-name="Path 1900" transform="translate(14.02 69.466)"/>
                    <path id="prefix__Path_1901" d="M40.252 160.617c-1.675 5.114-6.624 5.607-5.981 13.876s1.151 17.943-.179 23.924a3.911 3.911 0 0 1-.15.673 135.739 135.739 0 0 0-3.813 22.1 184.436 184.436 0 0 0-.658 25.419c.164 1.316.852 4.052 1.406 6.788.673 3.155 1.2 6.295.583 7.267-1.151 1.809-8.089 0-9.076-1.66s-.673-5.278-.673-7.252c0-.359 0-1.675-.179-3.6-.523-8.852-1.9-30.906-1.63-36.035.314-6.28 2.138-16.193 1.645-23.281s-2.99-12.724-2.138-25.12 5.458-13.4 5.8-19.782c.209-4.022 5.981-3.932 10.347-3.289a43.642 43.642 0 0 1 4.68.972s1.664 13.856.016 19z" class="prefix__cls-30" data-name="Path 1901" transform="translate(9.525 69.482)"/>
                    <path id="prefix__Path_1902" d="M45.026 140.16s-4.008 5.981-19.438 3.84c0 0-6.729 7.805-7.1 16.6s.748 22.533.748 22.533 5.443 2.362 15.73 2.362 13.248-3.23 13.248-3.23-.613-25.509-1.241-32.073a40.446 40.446 0 0 0-1.947-10.032z" class="prefix__cls-8" data-name="Path 1902" transform="translate(9.117 69.41)"/>
                    <path id="prefix__Path_1903" d="M15.225 133.241c1.106-7.237 3.962-9.285 10.467-14.235s13.681-7.476 17.4-1.734a40.371 40.371 0 0 1 5.5 14.8c0 1.361-2.228 4.486-2.168 6.31s.254 14.743.254 14.743-1.914 4.949-10.646 5.517-9.54-.748-9.54-.748-1.121-6.818-1.929-10.84-10.101-8.894-9.338-13.813z" class="prefix__cls-30" data-name="Path 1903" transform="translate(7.518 56.442)"/>
                    <path id="prefix__Path_1904" d="M26.429 157.885s.792 1.3 9.54.748 10.646-5.517 10.646-5.517-.194-12.949-.254-14.743 2.168-4.949 2.168-6.31a40.371 40.371 0 0 0-5.5-14.8A6.714 6.714 0 0 0 37.838 114c.3.359 3.738 4.486 3.663 7.028s-7.775 7.925-10.825 7.925-4.755-5.144-8.971-6.788a15.566 15.566 0 0 0-6.46 11.135c-.763 4.919 8.478 9.794 9.285 13.816s1.899 10.769 1.899 10.769z" class="prefix__cls-24" data-name="Path 1904" transform="translate(7.528 56.454)"/>
                    <path id="prefix__Path_1905" d="M33.66 115.18s0 5.263-.254 6.818-4.486 1.5-6.31 1.5a2.99 2.99 0 0 1-3.215-2.99c-.075-1.794 0-10.063 0-10.063a24.912 24.912 0 0 1 5.981 2.138c3.678 1.789 3.798 2.597 3.798 2.597z" class="prefix__cls-31" data-name="Path 1905" transform="translate(11.81 54.691)"/>
                    <path id="prefix__Path_1906" d="M33.945 117.62s1 2.721 1.66 4.486 3.14 28.664 2.138 37.74-3.125 12.381-4.949 12.889-12.874-4.965-12.874-4.965 4.62-11.558 4.291-15.849-5.622-12.231-7.476-18.5-1.077-6.863-.164-8.672S23 117.56 23 117.56l7.267 1z" class="prefix__cls-2" data-name="Path 1906" transform="translate(7.727 58.217)"/>
                    <path id="prefix__Path_1907" d="M31.485 118.477a22.638 22.638 0 0 0-1.5 4.71c0 1.151-9.42-4.8-9.42-4.8l.508-2.557z" class="prefix__cls-18" data-name="Path 1907" transform="translate(10.187 57.361)"/>
                    <path id="prefix__Path_1908" d="M39.709 104.131c.583 1.809 0 4.381.164 5.2a11.349 11.349 0 0 1 .658 2.99c0 1.316.09 8.343-1.316 9.241s-9.166-.329-10.736-1.57A17.047 17.047 0 0 1 25.668 117a3.349 3.349 0 0 1-2.8-1.241 16.328 16.328 0 0 1-1.989-13.128C22.708 96.52 32.531 96.266 36 98.748a8.149 8.149 0 0 1 3.709 5.383z" class="prefix__cls-30" data-name="Path 1908" transform="translate(10.053 48.171)"/>
                    <path id="prefix__Path_1909" d="M46.957 214.985c.314 2.632-7.611 1.974-9.749.643s-3.813-3.962-5.293-5.114-2.8-1.166-2.99-2.318c0-.329-.135-1.286-.224-2.587 2.916 2.153 10.033 7.162 12.709 6.818 1.66-.239 2.512-.778 2.856-1.5a11.469 11.469 0 0 1 2.691 4.052z" class="prefix__cls-6" data-name="Path 1909" transform="translate(14.213 101.823)"/>
                    <path id="prefix__Path_1910" d="M30.718 224.965c-1.151 1.809-8.089 0-9.076-1.66s-.673-5.278-.673-7.252c0-.359 0-1.675-.179-3.6.194.793.374 1.645.508 2.512.583 3.723.912 5.2 5.607 5.787 2.063.254 2.916-1.271 3.23-2.99.673 3.091 1.196 6.231.583 7.203z" class="prefix__cls-6" data-name="Path 1910" transform="translate(10.296 105.21)"/>
                    <path id="prefix__Path_1911" d="M14.913 133.952c.658-6.19 1.151-10.736 4.366-11.3s5.2 3.454 4.381 10.227-2.228 15.61-2.228 15.61 1.9 22.294 2.138 23.116 1.824 1.406 2.572 2.482 1.809 5.458 1.062 5.861-1.5-2.228-2.138-1.9-.09 2.99.329 4.127 1.5 2.392.822 2.811-4.486-.912-5.532-2.811a23.191 23.191 0 0 1-1.57-8.328c.09-1.406-4.486-22.428-4.71-23.924s.508-15.971.508-15.971z" class="prefix__cls-30" data-name="Path 1911" transform="translate(7.112 60.711)"/>
                    <path id="prefix__Path_1912" d="M15.26 127.185c.792-3.813 2.482-5.981 6.355-5.293s4.635 7.192 3.559 12.231-2.811 14.534-2.811 15.266.748 9.255.748 9.255a8.762 8.762 0 0 1-7.192 1.734A95.292 95.292 0 0 1 14 150.137c0-1.989-.22-15.775 1.26-22.952z" class="prefix__cls-4" data-name="Path 1912" transform="translate(6.929 60.3)"/>
                    <path id="prefix__Path_1913" d="M22.53 145.13c-1.406.942-4.127 2.99-7.476 1.69a3.873 3.873 0 0 0-.12 1.69A3.125 3.125 0 0 0 15.5 150a6.743 6.743 0 0 0 4.1.075 6.714 6.714 0 0 0 3.544-1.9 4.979 4.979 0 0 0-.164-1.854 5.638 5.638 0 0 0-.45-1.191z" class="prefix__cls-18" data-name="Path 1913" transform="translate(7.375 71.871)"/>
                    <path id="prefix__Path_1914" d="M30.3 117.155a48 48 0 0 1 4.217 6.355 23.924 23.924 0 0 1 2.721 9.659c0 1.615 1.406 18.631 2.153 24.447s2.063 13.577 2.063 13.577 2.6.628 1.615-8.657-3.23-19.079-3.1-22.668 2.348-4.71 2.093-8.3-5.4-15.072-7.551-16.313A9.285 9.285 0 0 0 30.36 114z" class="prefix__cls-2" data-name="Path 1914" transform="translate(15.006 56.454)"/>
                    <path id="prefix__Path_1915" d="M30.3 117.155a3.678 3.678 0 0 1 2.542 2.826 5.114 5.114 0 0 0-.09-2.99A9.33 9.33 0 0 0 30.33 114z" class="prefix__cls-18" data-name="Path 1915" transform="translate(15.006 56.454)"/>
                    <path id="prefix__Path_1916" d="M39.34 101.741A21.5 21.5 0 0 1 27.453 113.7s-1.181-4.082-2.99-2.781A2.99 2.99 0 0 0 23.341 115c.688 1.062 1.5 2.467 3.11 2.138 0 0 .15 7.342 0 8.7s-7.252 4.217-7.252 4.217-1.3-18.287.852-25.419 7.267-8.179 11.139-7.1a29.127 29.127 0 0 1 8.149 4.2z" class="prefix__cls-6" data-name="Path 1916" transform="translate(9.315 48.124)"/>
                    <path id="prefix__Path_1917" d="M24.75 97.559a9.584 9.584 0 0 1 8.732 0 8.239 8.239 0 0 1 4.486 4.77 19.961 19.961 0 0 1-.224 4.889s-.4-3.155-.7-4.157-.688-1.047-.688-1.047a41.973 41.973 0 0 0-5.562-3.275c-3.936-1.779-6.044-1.18-6.044-1.18z" class="prefix__cls-6" data-name="Path 1917" transform="translate(12.257 47.791)"/>
                    <path id="prefix__Path_1918" d="M86.392 336.056s11.11-3.17 13.457-1.989.553 5.8-4.605 8.747-7.97 4.77-10.706 5.488-7.028.792-7.656-1.914a11.842 11.842 0 0 1 .4-7.147c.752-1.196 9.11-3.185 9.11-3.185z" class="prefix__cls-6" data-name="Path 1918" transform="translate(37.892 165.308)"/>
                    <path id="prefix__Path_1919" d="M86.964 334.82v2.467a4.964 4.964 0 0 1-4.949 3.469c-4.486 0-4.665-2.407-4.665-2.407l.135-3.424" class="prefix__cls-31" data-name="Path 1919" transform="translate(38.306 165.812)"/>
                    <path id="prefix__Path_1920" d="M97.341 342.607s12.47-3.559 15.147-2.228.628 6.5-5.174 9.809-8.971 5.353-11.962 6.145-7.88.9-8.6-2.138a13.457 13.457 0 0 1 .449-8.014c.78-1.347 10.14-3.574 10.14-3.574z" class="prefix__cls-6" data-name="Path 1920" transform="translate(42.762 168.417)"/>
                    <path id="prefix__Path_1921" d="M97.068 340.82v4.486s-.538 2.99-4.9 3.2-5.263-2.661-5.263-2.661v-3.455l6.594-1z" class="prefix__cls-31" data-name="Path 1921" transform="translate(43.036 168.783)"/>
                    <path id="prefix__Path_1922" d="M77.12 282.441c-1.2 5.682 2.153 12.276 2.333 14.773s-1.645 21.038-2.721 34.211-.135 34.316-.135 34.316a5.981 5.981 0 0 0 6.13 1.959 15.4 15.4 0 0 0 6.624-2.856s2.99-44.468 3.828-49.642 2.437-25.838 2.557-29.052-16.179-15.372-18.616-3.709z" class="prefix__cls-9" data-name="Path 1922" transform="translate(37.744 137.418)"/>
                    <path id="prefix__Path_1923" d="M108.2 287.253a284.092 284.092 0 0 1-3.08 42.2c-.359 2.318-3.843 44.378-3.843 44.378s-3.633 8.194-15.042 2.048c0 0 1.181-38.517 1.391-45.066s1.271-20.081.822-26.914-4.246-8.433-4.665-17.4c0 0 1.5-8.194 12.216-7.476s12.201 8.23 12.201 8.23z" class="prefix__cls-8" data-name="Path 1923" transform="translate(41.491 138.153)"/>
                    <path id="prefix__Path_1924" d="M116.326 257.93c1.286-7.745-2.916-11.962-12.291-17.509-3.873-2.273-18.317-12.171-25.419-3.349s.4 28.6 0 39.833-2.138 25.942-2.138 25.942 3.618 7.342 16.717 8.553 21.382-2.407 21.382-2.407-1.989-28.381 1.749-51.063z" class="prefix__cls-2" data-name="Path 1924" transform="translate(37.414 115.622)"/>
                    <path id="prefix__Path_1925" d="M105.942 264.39s-4.142 4.81-13.562 5.876v5.263a58.926 58.926 0 0 0 13.367-3.2 19.288 19.288 0 0 0 .957-4.725c.225-2.765-.762-3.214-.762-3.214z" class="prefix__cls-6" data-name="Path 1925" transform="translate(45.75 130.932)"/>
                    <path id="prefix__Path_1926" d="M100.189 247.553a11.782 11.782 0 0 1 .822 2.841c-5.353-4.665-8.3 15.207-11.259 15.894s-14.279-3.364-17.2-9.39c-2.183-8.134 1.376-14.01 3.17-17.225 1.994-3.484 21.926 2.497 24.467 7.88z" class="prefix__cls-23" data-name="Path 1926" transform="translate(35.593 118.179)"/>
                    <path id="prefix__Path_1927" d="M102.36 281.319c.09 6.28.359 15.521-6.594 15.655s-21.666-6.549-22.428-9.495c-.523-1.944-1.7-19.722-.9-34.241 2.99 5.981 14.265 10.048 17.2 9.39s5.981-20.559 11.259-15.894c1.613 8.566 1.374 29.157 1.463 34.585z" class="prefix__cls-6" data-name="Path 1927" transform="translate(35.739 121.838)"/>
                    <path id="prefix__Path_1928" d="M93.095 251.479s2.632-7.267 6.385-7.94a14.952 14.952 0 0 1 7.028.523s.389-1.121-1.211-2.392a26.915 26.915 0 0 0-5.473-2.632s-5.682-1.316-11.543 4.934a7.372 7.372 0 0 1 3.364 2.811 27.018 27.018 0 0 1 1.45 4.696z" class="prefix__cls-6" data-name="Path 1928" transform="translate(43.719 118.32)"/>
                    <path id="prefix__Path_1929" d="M83.305 242.49s.852-7.282 3.858-8.822a3.469 3.469 0 0 0-1.929-.6 15.072 15.072 0 0 0-4.082 1.5s-2.676 1.66-4.022 6.773c0 .059 4.949.805 6.175 1.149z" class="prefix__cls-6" data-name="Path 1929" transform="translate(38.197 115.422)"/>
                    <path id="prefix__Path_1930" d="M87.091 241.079s-.09 3.3 0 4.022 3.559 2.99 7.043 3.379a11.588 11.588 0 0 0 5.293-.419v-4.486s5.218.224 5.981-1.136 2.048-8.134 1.5-9.555a13 13 0 0 1-1.062-3.469 33.521 33.521 0 0 0 .344-4.486 22.936 22.936 0 0 0-1.6-3.932s2.377-2.99-4.157-4.889-15.177.164-16.253 2.138a6.893 6.893 0 0 0-.972 3.379s-3.529 2.99-2.647 6.056a99.282 99.282 0 0 0 5.413 11.409z" class="prefix__cls-30" data-name="Path 1930" transform="translate(39.824 106.65)"/>
                    <path id="prefix__Path_1931" d="M100.409 216.14c-6.534-1.974-15.177.164-16.253 2.138a6.893 6.893 0 0 0-.972 3.379s-3.529 2.99-2.647 6.056a99.287 99.287 0 0 0 5.413 11.409l1.15 1.958s7.222-1.151 8.014-2.138 2.318-5.069 3.2-4.725 1 3.3 1 3.3h1.077a39.234 39.234 0 0 0 0-4.276c-.15-.807 1.3-2.228 1.5-3.394a31.714 31.714 0 0 0-.568-5.069c0-.718 3.245-3.753 3.245-3.753s2.375-2.925-4.159-4.885z" class="prefix__cls-6" data-name="Path 1931" transform="translate(39.814 106.649)"/>
                    <path id="prefix__Path_1932" d="M121.166 305.311c-.254-.852-2.99-8.493-2.99-8.493l-8.792-22.118a10.96 10.96 0 0 0-2.258-3.648c.508-8.4-1.66-23.206-1.66-23.206s-7.985-5.517-10.556 3.962c0 0 .912 14.728 1.181 20.933v2.392a2.272 2.272 0 0 0 0 .568v.09a1.69 1.69 0 0 0 .194.4v.09c3.14 6.355 14.878 23.7 14.952 24.507 0 0-.568 2.991.4 4.022s2.063 1.241 2.228 2.063.09 3.9.284 4.725 3.544 3.992 4.815 3.1c0 0 1.062-2.99 1.316-3.738a19.618 19.618 0 0 0 .886-5.649z" class="prefix__cls-30" data-name="Path 1932" transform="translate(47.003 121.95)"/>
                    <path id="prefix__Path_1933" d="M108.268 262.3c0-5.547-.3-13.173-1.032-15.685-1.211-4.067-9.794-7.117-12.53 2.243-1.391 4.8-1.062 11.782 0 17.838.045.018 10.706 2.216 13.562-4.396z" class="prefix__cls-4" data-name="Path 1933" transform="translate(46.444 120.191)"/>
                    <g id="prefix__Group_451" class="prefix__cls-32" data-name="Group 451" transform="translate(421.431 154.802)">
                        <path id="prefix__Path_1934" d="M307.493 146.547c-2.347-1.361-4.246-.269-4.246 2.452a9.39 9.39 0 0 0 4.246 7.357c2.348 1.346 4.246.254 4.246-2.452a9.345 9.345 0 0 0-4.246-7.357zm-9.928-12.8l3.738 6.669a6.355 6.355 0 0 1 6.19.688 18.168 18.168 0 0 1 6.175 6.444l3.738-2.348a29.218 29.218 0 0 0-9.913-10.347c-3.918-2.213-7.4-2.467-9.988-1.106zm9.928-25.135c-9.958-5.757-18.99-6.429-25.643-2.99l3.738 6.669c5.7-2.99 13.457-2.422 21.905 2.482s16.207 13.233 21.907 22.818l3.738-2.348c-6.73-11.143-15.761-20.888-25.645-26.63zM289.8 119.9l3.738 6.669c3.633-1.914 8.523-1.5 13.951 1.5a40.88 40.88 0 0 1 13.94 14.531l3.738-2.348a51.794 51.794 0 0 0-17.674-18.361c-6.923-3.962-13.143-4.411-17.748-1.989z" class="prefix__cls-6" data-name="Path 1934" transform="translate(-281.85 -103.532)"/>
                    </g>
                    <g id="prefix__Group_452" class="prefix__cls-32" data-name="Group 452" transform="translate(261.783 145.293)">
                        <path id="prefix__Path_1935" d="M177.309 98.41c-2.99 2.662-2.99 9.136.1 15.311 3.544 7 9.6 11.3 13.965 10.467l6.714 11.633c.284.493.748.763 1.032.6l1.884-1.092c.284-.164.284-.688 0-1.181l-6.71-11.648c2.721-3.14 2.288-9.839-1.316-16.074-4.378-7.526-11.692-11.41-15.669-8.016zm12.754 20.126c-2.5 1.5-6.549-.9-8.971-5.218s-2.482-8.971 0-10.467 6.549.9 8.971 5.2 2.482 9.106 0 10.541z" class="prefix__cls-6" data-name="Path 1935" transform="translate(-175.079 -97.172)"/>
                    </g>
                    <g id="prefix__Group_453" class="prefix__cls-32" data-name="Group 453" transform="translate(265.897 43.21)">
                        <path id="prefix__Path_1936" d="M197.925 46.27L185.41 30.69v16.7z" class="prefix__cls-6" data-name="Path 1936" transform="translate(-174.076 -28.014)"/>
                        <path id="prefix__Path_1937" d="M191.123 45.527l-13.293-7.671V28.9l13.293 7.685z" class="prefix__cls-6" data-name="Path 1937" transform="translate(-177.83 -28.9)"/>
                    </g>
                    <g id="prefix__Group_454" class="prefix__cls-32" data-name="Group 454" transform="translate(266.54 80.014)">
                        <path id="prefix__Path_1938" d="M206.654 92.115l-27.064-15.64a2.99 2.99 0 0 1-1.331-2.3v-19.71c0-.852.6-1.2 1.331-.763l27.064 15.625a2.99 2.99 0 0 1 1.331 2.3v19.71c0 .852-.598 1.196-1.331.778zm-25.792-17.943l24.4 14.1V71.63l-24.4-14.085z" class="prefix__cls-6" data-name="Path 1938" transform="translate(-178.26 -53.514)"/>
                        <path id="prefix__Path_1939" d="M193.1 77.028a2.662 2.662 0 0 1-.837-.807L178.806 55.96c-.568-.867-.673-1.884-.209-2.288s1.3 0 1.869.837l12.709 19.019 12.635-4.336c.568-.194 1.406.4 1.869 1.331s.359 1.839-.224 2.034l-13.532 4.635a.957.957 0 0 1-.822-.164z" class="prefix__cls-6" data-name="Path 1939" transform="translate(-178.238 -53.514)"/>
                    </g>
                    <g id="prefix__Group_455" class="prefix__cls-32" data-name="Group 455" transform="translate(428.579 239.145)">
                        <path id="prefix__Path_1940" d="M286.63 159.94h17.57v20.275z" class="prefix__cls-6" data-name="Path 1940" transform="translate(-286.63 -159.94)"/>
                        <path id="prefix__Path_1941" d="M299.54 167.39h17.554v20.275z" class="prefix__cls-6" data-name="Path 1941" transform="translate(-280.237 -156.251)"/>
                    </g>
                    <g id="prefix__Group_456" class="prefix__cls-32" data-name="Group 456" transform="translate(385.247 113.08)">
                        <path id="prefix__Path_1942" d="M272.214 95.069a7.057 7.057 0 0 1-3.888-1.077 14.8 14.8 0 0 1-3.888-3.409c-3.977-.493-6.788 2.333-6.788 7.551v.478a32.253 32.253 0 0 0 10.676 10.811c4.1 2.377 7.82 2.766 10.676 1.5v-.523a23.789 23.789 0 0 0-6.788-15.331zm-3.888-18.481c-3.873-2.243-7.028-.419-7.028 4.067a15.521 15.521 0 0 0 7.028 12.156c3.888 2.243 7.028.434 7.028-4.052a15.535 15.535 0 0 0-7.028-12.171z" class="prefix__cls-6" data-name="Path 1942" transform="translate(-257.65 -75.628)"/>
                    </g>
                </g>
            </g>
        </g>
    </g>
</svg>
