<svg xmlns="http://www.w3.org/2000/svg" width="450" length="auto" viewBox="0 0 823.385 668.757">
    <defs>
        <style>
            .prefix__cls-1{fill:#d0cde1}.prefix__cls-2{fill:#3f3d56}.prefix__cls-3{fill:#2e49e5}.prefix__cls-4{fill:#a0616a}.prefix__cls-5{fill:#2f2e41}.prefix__cls-7{fill:#fff}
        </style>
    </defs>
    <g id="prefix__undraw_next_option_2ajo" transform="translate(836.063 -1058)">
        <path id="prefix__Path_143" d="M0 0l76.165-1.458-11.859 643.567-76.165 1.458z" class="prefix__cls-1" data-name="Path 143" transform="rotate(-22.26 2468.565 2342.488)"/>
        <path id="prefix__Path_144" d="M0 0l76.165-1.458-11.357 616.347-76.165 1.458z" class="prefix__cls-1" data-name="Path 144" transform="rotate(-22.26 2449.723 2658.697)"/>
        <path id="prefix__Path_145" d="M0 0l76.165-1.458-11.859 643.567-76.165 1.458z" class="prefix__cls-1" data-name="Path 145" transform="rotate(-22.26 2488.852 1988.392)"/>
        <ellipse id="prefix__Ellipse_38" cx="223.621" cy="39.458" class="prefix__cls-2" data-name="Ellipse 38" rx="223.621" ry="39.458" transform="translate(-672.746 1647.84)"/>
        <path id="prefix__Path_125" d="M851.244 565.1l-1.685-.543-628.642-202.314 1.729-.911L654.2 133.961l.34.743zm-626.18-203.22l623.262 200.575-194.839-426.3z" class="prefix__cls-2" data-name="Path 125" transform="translate(-932.501 1001.452)"/>
        <path id="prefix__Path_345" d="M0 0h156.535v157.833H0z" class="prefix__cls-3" data-name="Path 345" transform="translate(-169.213 1476.99)"/>
        <path id="prefix__Path_344" d="M0 0h156.535v157.833H0z" class="prefix__cls-3" data-name="Path 344" transform="translate(-336.543 1058)"/>
        <path id="prefix__Rectangle_107" d="M0 0H156.535V157.833H0z" class="prefix__cls-3" data-name="Rectangle 107" transform="translate(-778.387 1284.173)"/>
        <path id="prefix__Path_126" d="M514.571 287.309h-4.627l-19.663 75.255s-.386 50.035 4.241 74.442c0 0 7.711-10.576 13.109-10.576s10.41-53.289 10.41-53.289 21.205-76.069-3.47-85.832z" class="prefix__cls-2" data-name="Path 126" transform="translate(-994.154 972.864)"/>
        <path id="prefix__Path_127" d="M652.086 464.309s-12.338 36.611-.771 39.052 17.735-28.475 14.651-32.543-13.88-6.509-13.88-6.509z" class="prefix__cls-4" data-name="Path 127" transform="translate(-1029.883 939.866)"/>
        <path id="prefix__Path_128" d="M494.157 454.727s3.468 38.683 14.93 35.743 4.681-33.713.257-36.027-15.187.284-15.187.284z" class="prefix__cls-4" data-name="Path 128" transform="translate(-995.043 941.884)"/>
        <path id="prefix__Path_129" d="M530.617 731.631s5.4 27.661-3.856 34.984 3.084 22.78 3.084 22.78l29.3-32.543s-12.338-20.339-11.567-32.543z" class="prefix__cls-4" data-name="Path 129" transform="translate(-1001.719 891.395)"/>
        <path id="prefix__Path_130" d="M517.8 725.5l-3.084 21.966-.771 15.458 16.964-1.627 2.313-31.729z" class="prefix__cls-4" data-name="Path 130" transform="translate(-942.639 922.747)"/>
        <path id="prefix__Path_131" d="M505.509 459.778s-9.51 3.687-8.738 14.263 3.084 43.933 3.084 43.933-6.94 71.594 0 96S519.9 687.2 519.9 687.2s20.049 4.068 24.675-11.39c0 0-.771-52.882-9.253-64.272s-2.313-14.644-1.542-16.271 3.084-4.068 3.084-6.509.771-11.39.771-14.644-.771-2.441.771-7.322 3.084-6.509 3.084-7.322 13.11-43.937 13.11-43.937L571.568 615.6s-3.856 98.442-2.313 98.442 18.507 6.509 24.675 0c0 0 15.422-84.611 12.338-89.493s-3.856-5.7-3.084-10.576 2.313-7.322.771-9.763-3.856-10.576-1.542-13.017 3.084-13.831 3.084-13.831 13.109-79.73 4.627-91.12-104.615-26.464-104.615-26.464z" class="prefix__cls-5" data-name="Path 131" transform="translate(-995.631 940.711)"/>
        <path id="prefix__Path_132" d="M529.524 773.246s-9.253-12.2-12.338-6.509-7.711 14.644-7.711 14.644-34.7 31.729-15.422 32.543 31.615-13.831 31.615-13.831 3.084-16.271 12.338-16.271l1.542 4.068 16.964-11.39s-2.389-21.6-9.291-20.97z" class="prefix__cls-5" data-name="Path 132" transform="translate(-993.685 885.577)"/>
        <path id="prefix__Path_133" d="M583.478 806.48s20.049-8.136 22.362 0 2.313 12.2 2.313 12.2 16.964 29.289 0 30.916-24.675-9.763-24.675-9.763 2.313-13.831 0-15.458 0-17.895 0-17.895z" class="prefix__cls-5" data-name="Path 133" transform="translate(-1015.253 876.75)"/>
        <ellipse id="prefix__Ellipse_39" cx="26.989" cy="28.475" class="prefix__cls-4" data-name="Ellipse 39" rx="26.989" ry="28.475" transform="translate(-444.884 1177.188)"/>
        <path id="prefix__Path_134" d="M574.181 228.309l-5.4 31.729 37.784 9.763s-8.868-23.187.771-33.356c2.441-2.573-33.155-8.136-33.155-8.136z" class="prefix__cls-4" data-name="Path 134" transform="translate(-1012.125 983.863)"/>
        <path id="prefix__Path_135" d="M556.353 250.694a5.036 5.036 0 00-3.842 3.755 22.154 22.154 0 01-3.084 6.509s-36.242 17.9-36.242 20.339 14.651 54.509 14.651 54.509.771 32.543-5.4 39.865-12.338 34.17-10.8 36.611-10.8 8.136-6.169 12.2 69.4 43.119 107.955 25.221c0 0 .771-7.322 0-12.2s4.627-21.153 3.084-26.848 0-64.272 0-64.272l7.947-69.362a5.656 5.656 0 00-3.753-6.082c-8.888-2.85-29.5-14.518-32.339-12.015-3.672 3.24-26.624 1.033-32.008-8.23z" class="prefix__cls-2" data-name="Path 135" transform="translate(-997.395 979.69)"/>
        <path id="prefix__Path_136" d="M648.037 275.211l.049-.021a5.185 5.185 0 016.308 1.906c4.778 6.9 14.834 22.4 16 32.284 1.542 13.017 6.169 48 5.4 52.882s-1.542 5.7 0 8.136.771 1.627 0 4.068-10.024 69.967-10.024 69.967-6.169-14.644-17.735-9.763c0 0 1.542-13.017 0-17.085s-3.084-6.509-1.542-9.763 0-34.984-.771-38.238 0-20.339 0-20.339l-6.94-33.356z" class="prefix__cls-2" data-name="Path 136" transform="translate(-1028.147 975.199)"/>
        <path id="prefix__Path_137" d="M587.5 216.841l.912-6.7c.213-1.563 1.079-3.618 2.52-3.193 1.226.361 3.9 1.468 4.343 1.134 1.674-1.251 4.208.937 5.969-.175.738-.466 1.219-1.464 2.076-1.53a2.312 2.312 0 011.524.729 10.222 10.222 0 003.946 2.261 4.1 4.1 0 004.154-1.195 2.263 2.263 0 01.735-.743 1.567 1.567 0 011.056.051l4.5 1.292a19.082 19.082 0 00-2.313-15.016 29.415 29.415 0 00-6.552-6.77q-4.179-3.354-8.625-6.31c-3.244-2.162-6.685-4.2-10.479-4.81s-8.042.48-10.428 3.65a7.069 7.069 0 01-2.415-3.442 2.7 2.7 0 00.159 4l-3.8-2.563c-1.07 1.185 1.02 3.333.109 4.657a2.317 2.317 0 01-1.024.706 17.339 17.339 0 00-5.579 3.7c-2.187 2.314-3.374 5.454-4.394 8.539-2.267 6.862-3.915 14.732-.694 21.156.365.728 5.186 12.748 5.828 13.217 2.171 1.584.758-2.25 2.313 0 1.22 1.764.992-4.989 2.8-3.506a4.324 4.324 0 004.919.233c.752-.55.509-3.6.1-6.408a3.412 3.412 0 01.969-2.926 3.018 3.018 0 012.841-.791c2.258.559 4.489 1.037 4.53.753z" class="prefix__cls-5" data-name="Path 137" transform="translate(-1010.433 993.67)"/>
        <path id="prefix__Path_138" d="M642.781 305.92l6.822 81.267s-14.415-68.159-6.822-81.267z" data-name="Path 138" transform="translate(-1028.557 969.394)" style="opacity:.1"/>
        <path id="prefix__Path_139" d="M716.165 74.307l40.1 18.712-40.1 17.9z" class="prefix__cls-7" data-name="Path 139" transform="translate(-988.925 1044.147)"/>
        <path id="prefix__Rectangle_108" d="M0 0H72.57V6.984H0z" class="prefix__cls-7" data-name="Rectangle 108" transform="translate(-736.739 1340.494)"/>
        <path id="prefix__Rectangle_109" d="M0 0H72.57V6.984H0z" class="prefix__cls-7" data-name="Rectangle 109" transform="translate(-736.739 1360.02)"/>
        <path id="prefix__Rectangle_110" d="M0 0H72.57V6.984H0z" class="prefix__cls-7" data-name="Rectangle 110" transform="translate(-736.739 1379.545)"/>
        <ellipse id="prefix__Ellipse_40" cx="8.482" cy="8.949" class="prefix__cls-7" data-name="Ellipse 40" rx="8.482" ry="8.949" transform="translate(-125.897 1547.329)"/>
        <ellipse id="prefix__Ellipse_41" cx="8.482" cy="8.949" class="prefix__cls-7" data-name="Ellipse 41" rx="8.482" ry="8.949" transform="translate(-99.68 1547.329)"/>
        <ellipse id="prefix__Ellipse_42" cx="8.482" cy="8.949" class="prefix__cls-7" data-name="Ellipse 42" rx="8.482" ry="8.949" transform="translate(-73.462 1547.329)"/>
    </g>
</svg>
