<?xml version="1.0" encoding="UTF-8"?>
<svg xmlns="http://www.w3.org/2000/svg" xmlns:xlink="http://www.w3.org/1999/xlink" width="18pt" height="18pt" viewBox="0 0 15 18" version="1.1">
<g id="surface1">
<path style=" stroke:none;fill-rule:nonzero;fill:rgb(43.921569%,43.921569%,43.921569%);fill-opacity:1;" d="M 11.394531 17.285156 L 2.976562 17.285156 C 1.953125 17.28125 1.121094 16.5 1.117188 15.535156 L 1.117188 3.1875 C 1.117188 2.835938 1.421875 2.546875 1.800781 2.546875 L 12.574219 2.546875 C 12.949219 2.546875 13.257812 2.835938 13.257812 3.1875 L 13.257812 15.535156 C 13.253906 16.5 12.421875 17.28125 11.394531 17.285156 Z M 2.480469 3.828125 L 2.480469 15.535156 C 2.480469 15.792969 2.703125 16.003906 2.976562 16.003906 L 11.394531 16.003906 C 11.667969 16.003906 11.890625 15.792969 11.890625 15.535156 L 11.890625 3.828125 Z M 2.480469 3.828125 "/>
<path style=" stroke:none;fill-rule:nonzero;fill:rgb(43.921569%,43.921569%,43.921569%);fill-opacity:1;" d="M 10.050781 3.828125 L 4.320312 3.828125 C 3.945312 3.828125 3.640625 3.542969 3.640625 3.1875 L 3.640625 2.023438 C 3.640625 0.964844 4.554688 0.109375 5.675781 0.105469 L 8.695312 0.105469 C 9.820312 0.109375 10.730469 0.964844 10.730469 2.023438 L 10.730469 3.1875 C 10.730469 3.542969 10.429688 3.828125 10.050781 3.828125 Z M 5.007812 2.546875 L 9.367188 2.546875 L 9.367188 2.023438 C 9.367188 1.675781 9.070312 1.390625 8.695312 1.390625 L 5.675781 1.390625 C 5.304688 1.390625 5.007812 1.675781 5.007812 2.023438 Z M 5.007812 2.546875 "/>
<path style=" stroke:none;fill-rule:nonzero;fill:rgb(43.921569%,43.921569%,43.921569%);fill-opacity:1;" d="M 7.183594 14.828125 C 6.808594 14.828125 6.503906 14.542969 6.503906 14.183594 L 6.503906 5.648438 C 6.503906 5.292969 6.808594 5.003906 7.183594 5.003906 C 7.5625 5.003906 7.867188 5.292969 7.867188 5.648438 L 7.867188 14.183594 C 7.867188 14.542969 7.5625 14.828125 7.183594 14.828125 Z M 7.183594 14.828125 "/>
<path style=" stroke:none;fill-rule:nonzero;fill:rgb(43.921569%,43.921569%,43.921569%);fill-opacity:1;" d="M 4.722656 14.828125 C 4.347656 14.828125 4.042969 14.542969 4.042969 14.183594 L 4.042969 5.648438 C 4.042969 5.292969 4.347656 5.003906 4.722656 5.003906 C 5.101562 5.003906 5.40625 5.292969 5.40625 5.648438 L 5.40625 14.183594 C 5.40625 14.542969 5.101562 14.828125 4.722656 14.828125 Z M 4.722656 14.828125 "/>
<path style=" stroke:none;fill-rule:nonzero;fill:rgb(43.921569%,43.921569%,43.921569%);fill-opacity:1;" d="M 9.648438 14.828125 C 9.273438 14.828125 8.96875 14.542969 8.96875 14.183594 L 8.96875 5.648438 C 8.96875 5.292969 9.273438 5.003906 9.648438 5.003906 C 10.023438 5.003906 10.332031 5.292969 10.332031 5.648438 L 10.332031 14.183594 C 10.332031 14.542969 10.023438 14.828125 9.648438 14.828125 Z M 9.648438 14.828125 "/>
<path style=" stroke:none;fill-rule:nonzero;fill:rgb(43.921569%,43.921569%,43.921569%);fill-opacity:1;" d="M 13.632812 3.828125 L 0.742188 3.828125 C 0.367188 3.828125 0.0585938 3.542969 0.0585938 3.1875 C 0.0585938 2.835938 0.367188 2.546875 0.742188 2.546875 L 13.632812 2.546875 C 14.007812 2.546875 14.3125 2.835938 14.3125 3.1875 C 14.3125 3.542969 14.007812 3.828125 13.632812 3.828125 Z M 13.632812 3.828125 "/>
</g>
</svg>
