<?xml version="1.0" encoding="UTF-8"?>
<svg xmlns="http://www.w3.org/2000/svg" xmlns:xlink="http://www.w3.org/1999/xlink" width="18pt" height="18pt" viewBox="0 0 18 18" version="1.1">
<g id="surface1">
<path style=" stroke:none;fill-rule:nonzero;fill:rgb(43.921569%,43.921569%,43.921569%);fill-opacity:1;" d="M 1.3125 16.15625 L 5.058594 16.15625 C 5.078125 16.15625 5.097656 16.152344 5.113281 16.152344 C 5.128906 16.148438 5.140625 16.148438 5.152344 16.148438 C 5.160156 16.148438 5.164062 16.148438 5.167969 16.144531 C 5.1875 16.140625 5.203125 16.136719 5.21875 16.132812 C 5.234375 16.128906 5.25 16.121094 5.265625 16.117188 C 5.265625 16.117188 5.269531 16.117188 5.269531 16.113281 C 5.285156 16.109375 5.296875 16.101562 5.3125 16.09375 C 5.3125 16.09375 5.316406 16.089844 5.320312 16.089844 C 5.332031 16.085938 5.34375 16.078125 5.359375 16.066406 C 5.363281 16.066406 5.363281 16.066406 5.367188 16.0625 C 5.378906 16.054688 5.390625 16.046875 5.398438 16.035156 C 5.402344 16.035156 5.40625 16.035156 5.410156 16.03125 C 5.425781 16.019531 5.4375 16.003906 5.449219 15.992188 L 13.976562 7.464844 C 13.976562 7.464844 13.980469 7.464844 13.980469 7.464844 C 13.980469 7.464844 13.980469 7.460938 13.984375 7.460938 L 16.019531 5.425781 C 16.21875 5.226562 16.328125 4.960938 16.328125 4.675781 C 16.328125 4.390625 16.21875 4.125 16.019531 3.925781 L 13.128906 1.035156 C 12.710938 0.621094 12.039062 0.621094 11.625 1.035156 L 9.589844 3.070312 C 9.589844 3.074219 9.589844 3.074219 9.589844 3.074219 L 0.917969 11.738281 C 0.90625 11.753906 0.898438 11.765625 0.886719 11.78125 C 0.882812 11.785156 0.878906 11.785156 0.875 11.789062 C 0.871094 11.800781 0.859375 11.8125 0.855469 11.824219 C 0.851562 11.828125 0.847656 11.832031 0.847656 11.832031 C 0.839844 11.847656 0.832031 11.855469 0.824219 11.867188 C 0.824219 11.871094 0.824219 11.875 0.824219 11.878906 C 0.8125 11.890625 0.808594 11.902344 0.800781 11.917969 C 0.800781 11.921875 0.800781 11.921875 0.800781 11.925781 C 0.792969 11.9375 0.789062 11.953125 0.785156 11.96875 C 0.78125 11.972656 0.78125 11.972656 0.78125 11.976562 C 0.777344 11.992188 0.773438 12.007812 0.769531 12.023438 C 0.769531 12.023438 0.769531 12.03125 0.769531 12.035156 C 0.765625 12.046875 0.761719 12.0625 0.761719 12.074219 C 0.757812 12.09375 0.757812 12.109375 0.757812 12.128906 L 0.757812 15.605469 C 0.757812 15.910156 1.007812 16.15625 1.3125 16.15625 Z M 1.863281 15.050781 L 1.863281 12.359375 L 9.980469 4.242188 L 12.808594 7.070312 L 4.832031 15.050781 Z M 12.375 1.847656 L 15.207031 4.675781 L 13.589844 6.289062 L 10.761719 3.460938 Z M 12.375 1.847656 "/>
</g>
</svg>
