<?xml version="1.0" encoding="UTF-8"?>
<svg xmlns="http://www.w3.org/2000/svg" xmlns:xlink="http://www.w3.org/1999/xlink" width="18pt" height="18pt" viewBox="0 0 18 18" version="1.1">
<g id="surface1">
<path style=" stroke:none;fill-rule:nonzero;fill:rgb(23.137255%,34.901961%,59.607843%);fill-opacity:1;" d="M 18 9 C 18 13.972656 13.972656 18 9 18 C 4.027344 18 0 13.972656 0 9 C 0 4.027344 4.027344 0 9 0 C 13.972656 0 18 4.027344 18 9 Z M 18 9 "/>
<path style=" stroke:none;fill-rule:nonzero;fill:rgb(100%,100%,100%);fill-opacity:1;" d="M 11.261719 9.351562 L 9.65625 9.351562 L 9.65625 15.234375 L 7.226562 15.234375 L 7.226562 9.351562 L 6.066406 9.351562 L 6.066406 7.285156 L 7.226562 7.285156 L 7.226562 5.949219 C 7.226562 4.988281 7.679688 3.492188 9.679688 3.492188 L 11.480469 3.5 L 11.480469 5.503906 L 10.171875 5.503906 C 9.960938 5.503906 9.65625 5.613281 9.65625 6.070312 L 9.65625 7.289062 L 11.476562 7.289062 Z M 11.261719 9.351562 "/>
</g>
</svg>
