<svg xmlns="http://www.w3.org/2000/svg" viewBox="0 0 113.96 113.96"><defs><style>.cls-1{fill:#2e49e5;}</style></defs><title>Favicon</title><g id="Layer_2" data-name="Layer 2"><g id="Shape"><path id="Inner" class="cls-1" d="M40.57,103.36a9.53,9.53,0,0,1-2.79-6.73A58.84,58.84,0,0,1,96.7,37.72a9.52,9.52,0,1,1,0,19A39.81,39.81,0,0,0,56.83,96.61a9.52,9.52,0,0,1-16.26,6.75Z"/><path id="Outer" class="cls-1" d="M5.51,108a9.53,9.53,0,0,1-2.79-6.72A98.45,98.45,0,0,1,101.3,2.66a9.52,9.52,0,0,1,0,19,79.4,79.4,0,0,0-79.51,79.51A9.52,9.52,0,0,1,5.51,108Z"/></g></g></svg>