<?xml version="1.0" encoding="UTF-8"?>
<svg xmlns="http://www.w3.org/2000/svg" xmlns:xlink="http://www.w3.org/1999/xlink" width="18pt" height="18pt" viewBox="0 0 18 18" version="1.1">
<g id="surface1">
<path style=" stroke:none;fill-rule:nonzero;fill:rgb(33.333333%,67.45098%,93.333333%);fill-opacity:1;" d="M 9 0 C 13.96875 0 18 4.03125 18 9 C 18 13.96875 13.96875 18 9 18 C 4.03125 18 0 13.96875 0 9 C 0 4.03125 4.03125 0 9 0 Z M 9 0 "/>
<path style=" stroke:none;fill-rule:nonzero;fill:rgb(100%,100%,100%);fill-opacity:1;" d="M 11.15625 4.316406 C 9.878906 4.351562 8.851562 5.394531 8.851562 6.679688 C 8.851562 6.867188 8.875 7.046875 8.914062 7.21875 C 6.949219 7.121094 5.207031 6.179688 4.042969 4.75 C 3.839844 5.097656 3.722656 5.503906 3.722656 5.9375 C 3.722656 6.757812 4.140625 7.480469 4.773438 7.90625 C 4.386719 7.894531 4.019531 7.785156 3.703125 7.609375 C 3.703125 7.621094 3.703125 7.628906 3.703125 7.640625 C 3.703125 8.785156 4.515625 9.738281 5.597656 9.957031 C 5.402344 10.011719 5.191406 10.039062 4.976562 10.039062 C 4.824219 10.039062 4.675781 10.023438 4.53125 9.996094 C 4.832031 10.9375 5.703125 11.621094 6.738281 11.640625 C 5.929688 12.273438 4.910156 12.652344 3.804688 12.652344 C 3.613281 12.652344 3.425781 12.640625 3.238281 12.617188 C 4.285156 13.289062 5.527344 13.679688 6.863281 13.679688 C 11.210938 13.679688 13.585938 10.078125 13.585938 6.957031 C 13.585938 6.851562 13.585938 6.75 13.582031 6.648438 C 14.042969 6.316406 14.445312 5.898438 14.761719 5.425781 C 14.335938 5.613281 13.882812 5.742188 13.402344 5.796875 C 13.890625 5.503906 14.265625 5.042969 14.441406 4.488281 C 13.984375 4.761719 13.480469 4.957031 12.941406 5.0625 C 12.511719 4.605469 11.894531 4.316406 11.214844 4.316406 C 11.195312 4.316406 11.175781 4.316406 11.15625 4.316406 Z M 11.15625 4.316406 "/>
</g>
</svg>
