<svg xmlns="http://www.w3.org/2000/svg" id="prefix__interface_1_"  data-name="interface (1)" viewBox="0 0 124.028 124.028">
    <defs>
        <style>
            .prefix__cls-1{fill:#2e49e5}
        </style>
    </defs>
    <g id="prefix__Group_53" data-name="Group 53" transform="translate(29.834 40.058)">
        <g id="prefix__Group_52" data-name="Group 52">
            <path id="prefix__Path_443" d="M186.306 166.932a5.027 5.027 0 0 0-7.108-.188l-32.1 30.442-15.311-15.72a5.028 5.028 0 0 0-7.2 7.016l18.772 19.273a5.03 5.03 0 0 0 7.063.141l35.7-33.856a5.027 5.027 0 0 0 .184-7.108z" class="prefix__cls-1" data-name="Path 443" transform="translate(-123.158 -165.364)"/>
        </g>
    </g>
    <g id="prefix__Group_55" data-name="Group 55">
        <g id="prefix__Group_54" data-name="Group 54">
            <path id="prefix__Path_444" d="M62.014 0a62.014 62.014 0 1 0 62.014 62.014A62.084 62.084 0 0 0 62.014 0zm0 113.972a51.958 51.958 0 1 1 51.958-51.958 52.017 52.017 0 0 1-51.958 51.958z" class="prefix__cls-1" data-name="Path 444"/>
        </g>
    </g>
</svg>
