<svg xmlns="http://www.w3.org/2000/svg" width="800" height="500" viewBox="0 0 847.799 710.694">
    <defs>
        <linearGradient id="prefix__linear-gradient" x1=".5" x2=".5" y1="1" gradientUnits="objectBoundingBox">
            <stop offset="0" stop-color="gray" stop-opacity=".251"/>
            <stop offset=".54" stop-color="gray" stop-opacity=".122"/>
            <stop offset="1" stop-color="gray" stop-opacity=".102"/>
        </linearGradient>
        <style>
            .prefix__cls-1,.prefix__cls-5{fill:#2e49e5}.prefix__cls-1,.prefix__cls-11,.prefix__cls-3{opacity:.1}.prefix__cls-2{fill:#d0d2d5}.prefix__cls-4{fill:#444053}.prefix__cls-6{fill:#fff}.prefix__cls-9{fill:#ee8e9e}.prefix__cls-10{fill:#454b69}.prefix__cls-14{fill:#a26565}.prefix__cls-15{fill:#efb7b9}
        </style>
    </defs>
    <g id="prefix__undraw_youtube_tutorial_2gn3_1_" data-name="undraw_youtube_tutorial_2gn3 (1)" transform="translate(-.001 -.005)">
        <path id="prefix__Path_387" d="M527.587 140.788c-54.35-2.145-106.119-22.144-155.548-44.006S273.641 50.69 220.6 39.1c-34.123-7.453-73.145-8.487-100.635 12.333-26.462 20.05-35.008 54.7-39.6 86.79-3.459 24.17-5.492 49.57 3.976 72.227 6.58 15.7 18.262 28.9 26.342 43.946 28.1 52.356 8.253 116.908-22.223 168.017C74.2 446.4 57.6 469.266 46.577 494.795s-16.123 54.766-6.482 80.8c9.566 25.811 32.344 45.194 57.021 58.826 50.126 27.691 109.2 35.622 166.794 40.109 127.51 9.9 255.695 5.624 383.534 1.35 47.313-1.6 94.828-3.214 141.375-11.546 25.839-4.624 52.519-11.965 71.276-29.7 23.821-22.512 29.726-60.629 13.76-88.884-26.77-47.339-100.8-59.1-119.512-109.909-10.3-27.964.278-59.117 15.246-85.055 32.112-55.647 85.937-104.456 88.773-168.06 1.951-43.681-23.926-87.431-63.931-108.1C752.49 52.963 694.344 55.69 663.4 91.551c-31.839 36.93-87.825 51.134-135.813 49.237z" class="prefix__cls-1" data-name="Path 387" transform="translate(-35 -34.22)"/>
        <path id="prefix__Path_388" d="M615.484 742.809l-146.3-2.137.428-4.273 7.075-70.509h128.481l9.453 70.509.72 5.342z" class="prefix__cls-2" data-name="Path 388" transform="translate(-117.165 -96.782)"/>
        <path id="prefix__Path_389" d="M615.342 753.732h-73.01l-73.152-1.068.428-4.273h145.013z" class="prefix__cls-3" data-name="Path 389" transform="translate(-117.165 -108.773)"/>
        <path id="prefix__Rectangle_500" d="M0 0H194.134V5.342H0z" class="prefix__cls-2" data-name="Rectangle 500" transform="translate(327.631 640.685)"/>
        <path id="prefix__Path_390" d="M788.759 202.214c.033-7.68-5.405-13.936-12.147-13.974H234.454c-6.745.033-12.188 6.291-12.154 13.974v374.339h566.46z" class="prefix__cls-4" data-name="Path 390" transform="translate(-81.773 -56.605)"/>
        <path id="prefix__Path_391" d="M222.3 638.24v43.844c0 7.647 5.442 13.845 12.154 13.845h542.158c6.71 0 12.147-6.2 12.147-13.845V638.24z" class="prefix__cls-2" data-name="Path 391" transform="translate(-81.773 -122.01)"/>
        <path id="prefix__Rectangle_501" d="M0 0H522.381V336.521H0z" class="prefix__cls-1" data-name="Rectangle 501" transform="translate(163.973 155.138)"/>
        <path id="prefix__Path_392" d="M599.346 681.377a12.175 12.175 0 009.964-5.5 14.988 14.988 0 00.983-1.649l-6.948-1.3 7.5.068a16.246 16.246 0 00.24-11.435l-10.076 5.983 9.3-7.777c-2.38-4.651-6.838-7.4-11.558-7.139s-8.918 3.5-10.885 8.4A16.08 16.08 0 00589.4 675.9a12.156 12.156 0 009.946 5.477z" class="prefix__cls-5" data-name="Path 392" transform="translate(-172.776 -124.098)"/>
        <path id="prefix__Path_393" d="M585.43 671.52l58.364 66.766-8.951-66.766z" class="prefix__cls-3" data-name="Path 393" transform="translate(-146.195 -97.601)"/>
        <rect id="prefix__Rectangle_502" width="342.877" height="234.176" class="prefix__cls-6" data-name="Rectangle 502" rx="2.6" transform="translate(179.317 215.853)"/>
        <path id="prefix__Rectangle_503" d="M0 0H522.193V19.657H0z" class="prefix__cls-6" data-name="Rectangle 503" transform="translate(164.311 155.172)"/>
        <rect id="prefix__Rectangle_504" width="15.006" height="11.965" class="prefix__cls-5" data-name="Rectangle 504" rx=".78" transform="translate(166.562 158.591)"/>
        <rect id="prefix__Rectangle_505" width="157.558" height="11.965" data-name="Rectangle 505" rx=".58" transform="translate(345.128 158.591)" style="opacity:.3;fill:#2e49e5"/>
        <path id="prefix__Path_394" d="M696.777 227.2h-.383l-.143-.137a3.945 3.945 0 00.75-2.325 3.133 3.133 0 10-3.1 3.564 2.981 2.981 0 002.041-.855l.143.137v.444l2.4 2.735.75-.855zm-2.881 0a2.184 2.184 0 01-2.009-1.521 2.726 2.726 0 01.469-2.7 1.979 1.979 0 012.366-.534 2.5 2.5 0 011.335 2.289 2.63 2.63 0 01-.628 1.746 2.021 2.021 0 01-1.532.716z" class="prefix__cls-4" data-name="Path 394" transform="translate(-198.765 -61.4)"/>
        <ellipse id="prefix__Ellipse_73" cx="5.252" cy="5.983" class="prefix__cls-5" data-name="Ellipse 73" rx="5.252" ry="5.983" transform="translate(673.749 158.591)"/>
        <rect id="prefix__Rectangle_506" width="48.768" height="37.605" class="prefix__cls-6" data-name="Rectangle 506" rx="2.43" transform="translate(546.952 196.196)"/>
        <rect id="prefix__Rectangle_507" width="63.023" height="5.983" class="prefix__cls-6" data-name="Rectangle 507" rx=".61" transform="translate(608.475 196.196)"/>
        <rect id="prefix__Rectangle_508" width="63.023" height="5.983" class="prefix__cls-6" data-name="Rectangle 508" rx=".61" transform="translate(608.475 209.015)"/>
        <rect id="prefix__Rectangle_509" width="63.023" height="5.983" class="prefix__cls-6" data-name="Rectangle 509" rx=".61" transform="translate(608.475 221.835)"/>
        <rect id="prefix__Rectangle_510" width="48.768" height="37.605" class="prefix__cls-6" data-name="Rectangle 510" rx="2.43" transform="translate(546.952 255.167)"/>
        <rect id="prefix__Rectangle_511" width="63.023" height="5.983" class="prefix__cls-6" data-name="Rectangle 511" rx=".61" transform="translate(608.475 255.167)"/>
        <rect id="prefix__Rectangle_512" width="63.023" height="5.983" class="prefix__cls-6" data-name="Rectangle 512" rx=".61" transform="translate(608.475 267.987)"/>
        <rect id="prefix__Rectangle_513" width="63.023" height="5.983" class="prefix__cls-6" data-name="Rectangle 513" rx=".66" transform="translate(608.475 280.807)"/>
        <rect id="prefix__Rectangle_514" width="48.768" height="37.605" class="prefix__cls-6" data-name="Rectangle 514" rx="2.43" transform="translate(546.952 314.138)"/>
        <rect id="prefix__Rectangle_515" width="63.023" height="5.983" class="prefix__cls-6" data-name="Rectangle 515" rx=".66" transform="translate(608.475 314.138)"/>
        <rect id="prefix__Rectangle_516" width="63.023" height="5.983" class="prefix__cls-6" data-name="Rectangle 516" rx=".66" transform="translate(608.475 326.958)"/>
        <rect id="prefix__Rectangle_517" width="63.023" height="5.983" class="prefix__cls-6" data-name="Rectangle 517" rx=".66" transform="translate(608.475 339.778)"/>
        <rect id="prefix__Rectangle_518" width="48.768" height="37.605" class="prefix__cls-6" data-name="Rectangle 518" rx="2.43" transform="translate(546.952 373.109)"/>
        <rect id="prefix__Rectangle_519" width="63.023" height="5.983" class="prefix__cls-6" data-name="Rectangle 519" rx=".66" transform="translate(608.475 373.109)"/>
        <rect id="prefix__Rectangle_520" width="63.023" height="5.983" class="prefix__cls-6" data-name="Rectangle 520" rx=".66" transform="translate(608.475 385.929)"/>
        <rect id="prefix__Rectangle_521" width="63.023" height="5.983" class="prefix__cls-6" data-name="Rectangle 521" rx=".66" transform="translate(608.475 398.749)"/>
        <rect id="prefix__Rectangle_522" width="48.768" height="37.605" class="prefix__cls-6" data-name="Rectangle 522" rx="2.43" transform="translate(546.952 432.081)"/>
        <rect id="prefix__Rectangle_523" width="63.023" height="5.983" class="prefix__cls-6" data-name="Rectangle 523" rx=".66" transform="translate(608.475 432.081)"/>
        <rect id="prefix__Rectangle_524" width="63.023" height="5.983" class="prefix__cls-6" data-name="Rectangle 524" rx=".66" transform="translate(608.475 444.9)"/>
        <rect id="prefix__Rectangle_525" width="63.023" height="5.983" class="prefix__cls-6" data-name="Rectangle 525" rx=".66" transform="translate(608.475 457.72)"/>
        <path id="prefix__Rectangle_526" d="M0 0H77.151V4.555H0z" class="prefix__cls-1" data-name="Rectangle 526" transform="translate(228.775 277.909)"/>
        <path id="prefix__Rectangle_527" d="M0 0H7.428V24.084H0z" class="prefix__cls-1" data-name="Rectangle 527" transform="translate(235.632 253.825)"/>
        <path id="prefix__Rectangle_528" d="M0 0H7.428V24.084H0z" class="prefix__cls-1" data-name="Rectangle 528" transform="translate(246.489 253.825)"/>
        <path id="prefix__Rectangle_529" d="M0 0H7.428V24.084H0z" class="prefix__cls-1" data-name="Rectangle 529" transform="translate(257.345 253.825)"/>
        <path id="prefix__Rectangle_530" d="M0 0H7.428V24.084H0z" class="prefix__cls-1" data-name="Rectangle 530" transform="translate(268.202 253.825)"/>
        <path id="prefix__Rectangle_531" d="M0 0H7.428V24.084H0z" class="prefix__cls-1" data-name="Rectangle 531" transform="translate(279.058 253.825)"/>
        <path id="prefix__Rectangle_532" d="M0 0H7.428V24.084H0z" class="prefix__cls-1" data-name="Rectangle 532" transform="translate(289.922 253.825)"/>
        <path id="prefix__Rectangle_533" d="M0 0H7.428V2.607H0z" class="prefix__cls-1" data-name="Rectangle 533" transform="translate(235.632 258.38)"/>
        <path id="prefix__Rectangle_534" d="M0 0H7.428V2.607H0z" class="prefix__cls-1" data-name="Rectangle 534" transform="translate(246.489 258.38)"/>
        <path id="prefix__Rectangle_535" d="M0 0H7.428V2.607H0z" class="prefix__cls-1" data-name="Rectangle 535" transform="translate(257.345 258.38)"/>
        <path id="prefix__Rectangle_536" d="M0 0H7.428V2.607H0z" class="prefix__cls-1" data-name="Rectangle 536" transform="translate(268.202 258.38)"/>
        <path id="prefix__Rectangle_537" d="M0 0H7.428V2.607H0z" class="prefix__cls-1" data-name="Rectangle 537" transform="translate(279.058 258.38)"/>
        <path id="prefix__Rectangle_538" d="M0 0H7.428V2.607H0z" class="prefix__cls-1" data-name="Rectangle 538" transform="translate(289.922 258.38)"/>
        <path id="prefix__Rectangle_539" d="M0 0H7.428V2.607H0z" class="prefix__cls-1" data-name="Rectangle 539" transform="translate(235.632 270.098)"/>
        <path id="prefix__Rectangle_540" d="M0 0H7.428V2.607H0z" class="prefix__cls-1" data-name="Rectangle 540" transform="translate(246.489 270.098)"/>
        <path id="prefix__Rectangle_541" d="M0 0H7.428V2.607H0z" class="prefix__cls-1" data-name="Rectangle 541" transform="translate(257.345 270.098)"/>
        <path id="prefix__Rectangle_542" d="M0 0H7.428V2.607H0z" class="prefix__cls-1" data-name="Rectangle 542" transform="translate(268.202 270.098)"/>
        <path id="prefix__Rectangle_543" d="M0 0H7.428V2.607H0z" class="prefix__cls-1" data-name="Rectangle 543" transform="translate(279.058 270.098)"/>
        <path id="prefix__Rectangle_544" d="M0 0H7.428V2.607H0z" class="prefix__cls-1" data-name="Rectangle 544" transform="translate(289.922 270.098)"/>
        <path id="prefix__Rectangle_545" d="M0 0H77.151V4.555H0z" class="prefix__cls-1" data-name="Rectangle 545" transform="translate(397.925 289.627)"/>
        <path id="prefix__Rectangle_546" d="M0 0H7.428V24.084H0z" class="prefix__cls-1" data-name="Rectangle 546" transform="translate(404.782 265.542)"/>
        <path id="prefix__Rectangle_547" d="M0 0H7.428V24.084H0z" class="prefix__cls-1" data-name="Rectangle 547" transform="translate(415.639 265.542)"/>
        <path id="prefix__Rectangle_548" d="M0 0H7.428V24.084H0z" class="prefix__cls-1" data-name="Rectangle 548" transform="translate(426.495 265.542)"/>
        <path id="prefix__Rectangle_549" d="M0 0H7.428V24.084H0z" class="prefix__cls-1" data-name="Rectangle 549" transform="translate(437.359 265.542)"/>
        <path id="prefix__Rectangle_550" d="M0 0H7.428V24.084H0z" class="prefix__cls-1" data-name="Rectangle 550" transform="translate(448.216 265.542)"/>
        <path id="prefix__Rectangle_551" d="M0 0H7.428V24.084H0z" class="prefix__cls-1" data-name="Rectangle 551" transform="translate(459.072 265.542)"/>
        <path id="prefix__Rectangle_552" d="M0 0H7.428V2.607H0z" class="prefix__cls-1" data-name="Rectangle 552" transform="translate(404.782 270.098)"/>
        <path id="prefix__Rectangle_553" d="M0 0H7.428V2.607H0z" class="prefix__cls-1" data-name="Rectangle 553" transform="translate(415.639 270.098)"/>
        <path id="prefix__Rectangle_554" d="M0 0H7.428V2.607H0z" class="prefix__cls-1" data-name="Rectangle 554" transform="translate(426.495 270.098)"/>
        <path id="prefix__Rectangle_555" d="M0 0H7.428V2.607H0z" class="prefix__cls-1" data-name="Rectangle 555" transform="translate(437.359 270.098)"/>
        <path id="prefix__Rectangle_556" d="M0 0H7.428V2.607H0z" class="prefix__cls-1" data-name="Rectangle 556" transform="translate(448.216 270.098)"/>
        <path id="prefix__Rectangle_557" d="M0 0H7.428V2.607H0z" class="prefix__cls-1" data-name="Rectangle 557" transform="translate(459.072 270.098)"/>
        <path id="prefix__Rectangle_558" d="M0 0H7.428V2.607H0z" class="prefix__cls-1" data-name="Rectangle 558" transform="translate(404.782 281.815)"/>
        <path id="prefix__Rectangle_559" d="M0 0H7.428V2.607H0z" class="prefix__cls-1" data-name="Rectangle 559" transform="translate(415.639 281.815)"/>
        <path id="prefix__Rectangle_560" d="M0 0H7.428V2.607H0z" class="prefix__cls-1" data-name="Rectangle 560" transform="translate(426.495 281.815)"/>
        <path id="prefix__Rectangle_561" d="M0 0H7.428V2.607H0z" class="prefix__cls-1" data-name="Rectangle 561" transform="translate(437.359 281.815)"/>
        <path id="prefix__Rectangle_562" d="M0 0H7.428V2.607H0z" class="prefix__cls-1" data-name="Rectangle 562" transform="translate(448.216 281.815)"/>
        <path id="prefix__Rectangle_563" d="M0 0H7.428V2.607H0z" class="prefix__cls-1" data-name="Rectangle 563" transform="translate(459.072 281.815)"/>
        <path id="prefix__Rectangle_564" d="M0 0H77.151V4.555H0z" class="prefix__cls-1" data-name="Rectangle 564" transform="translate(397.925 322.821)"/>
        <path id="prefix__Rectangle_565" d="M0 0H7.428V24.084H0z" class="prefix__cls-1" data-name="Rectangle 565" transform="translate(404.782 298.737)"/>
        <path id="prefix__Rectangle_566" d="M0 0H7.428V24.084H0z" class="prefix__cls-1" data-name="Rectangle 566" transform="translate(415.639 298.737)"/>
        <path id="prefix__Rectangle_567" d="M0 0H7.428V24.084H0z" class="prefix__cls-1" data-name="Rectangle 567" transform="translate(426.495 298.737)"/>
        <path id="prefix__Rectangle_568" d="M0 0H7.428V24.084H0z" class="prefix__cls-1" data-name="Rectangle 568" transform="translate(437.359 298.737)"/>
        <path id="prefix__Rectangle_569" d="M0 0H7.428V24.084H0z" class="prefix__cls-1" data-name="Rectangle 569" transform="translate(448.216 298.737)"/>
        <path id="prefix__Rectangle_570" d="M0 0H7.428V24.084H0z" class="prefix__cls-1" data-name="Rectangle 570" transform="translate(459.072 298.737)"/>
        <path id="prefix__Rectangle_571" d="M0 0H7.428V2.607H0z" class="prefix__cls-1" data-name="Rectangle 571" transform="translate(404.782 303.293)"/>
        <path id="prefix__Rectangle_572" d="M0 0H7.428V2.607H0z" class="prefix__cls-1" data-name="Rectangle 572" transform="translate(415.639 303.293)"/>
        <path id="prefix__Rectangle_573" d="M0 0H7.428V2.607H0z" class="prefix__cls-1" data-name="Rectangle 573" transform="translate(426.495 303.293)"/>
        <path id="prefix__Rectangle_574" d="M0 0H7.428V2.607H0z" class="prefix__cls-1" data-name="Rectangle 574" transform="translate(437.359 303.293)"/>
        <path id="prefix__Rectangle_575" d="M0 0H7.428V2.607H0z" class="prefix__cls-1" data-name="Rectangle 575" transform="translate(448.216 303.293)"/>
        <path id="prefix__Rectangle_576" d="M0 0H7.428V2.607H0z" class="prefix__cls-1" data-name="Rectangle 576" transform="translate(459.072 303.293)"/>
        <path id="prefix__Rectangle_577" d="M0 0H7.428V2.607H0z" class="prefix__cls-1" data-name="Rectangle 577" transform="translate(404.782 315.01)"/>
        <path id="prefix__Rectangle_578" d="M0 0H7.428V2.607H0z" class="prefix__cls-1" data-name="Rectangle 578" transform="translate(415.639 315.01)"/>
        <path id="prefix__Rectangle_579" d="M0 0H7.428V2.607H0z" class="prefix__cls-1" data-name="Rectangle 579" transform="translate(426.495 315.01)"/>
        <path id="prefix__Rectangle_580" d="M0 0H7.428V2.607H0z" class="prefix__cls-1" data-name="Rectangle 580" transform="translate(437.359 315.01)"/>
        <path id="prefix__Rectangle_581" d="M0 0H7.428V2.607H0z" class="prefix__cls-1" data-name="Rectangle 581" transform="translate(448.216 315.01)"/>
        <path id="prefix__Rectangle_582" d="M0 0H7.428V2.607H0z" class="prefix__cls-1" data-name="Rectangle 582" transform="translate(459.072 315.01)"/>
        <path id="prefix__Path_395" d="M401.551 413.287a24.746 24.746 0 01-1.576-2.641l11.112-2.077-12 .1a26.093 26.093 0 01-.39-18.273l16.093 9.5-14.863-12.444c3.77-7.534 10.929-12.024 18.533-11.625s14.37 5.622 17.515 13.519a25.717 25.717 0 01-2.608 23.916 23.106 23.106 0 012.311 4.2l-14.42 8.547 15.373-5.872a25.682 25.682 0 01-3.264 21.631c6.547 9.456 5.609 23.058-2.154 31.234s-19.741 8.176-27.5 0-8.7-21.777-2.154-31.234a25.642 25.642 0 010-28.52z" class="prefix__cls-1" data-name="Path 395" transform="translate(-125.449 -83.867)"/>
        <path id="prefix__Path_396" d="M437.7 436.282a25.084 25.084 0 01-4.338 14.241c6.547 9.457 5.609 23.059-2.155 31.234s-19.742 8.175-27.5 0-8.7-21.779-2.151-31.235c-2.729-3.907 36.144-16.829 36.144-14.24z" class="prefix__cls-1" data-name="Path 396" transform="translate(-125.449 -92.607)"/>
        <path id="prefix__Path_397" d="M426 502.762q.053.091.1.188h-6.873c.038-.06.06-.128.1-.188a8.414 8.414 0 01-.885-3.854 8.907 8.907 0 01.413-2.718c.383.068.855.145 1.4.214a21.159 21.159 0 004.794 0q.69-.077 1.418-.205a.087.087 0 000 .043 8.659 8.659 0 01.405 2.675 8.42 8.42 0 01-.872 3.845z" data-name="Path 397" transform="translate(-130.753 -101.364)" style="fill:#3f3d56;opacity:.2"/>
        <path id="prefix__Path_398" d="M377.569 489.588H339.3c-.082-.248-.158-.513-.225-.769a25.964 25.964 0 01.443-15.076c-7.688-6.055-10.742-17.316-7.39-27.255a20.067 20.067 0 01-2.183-1.991l10.069-5.718-11.449 4.137a25.172 25.172 0 01-5.1-17.324l17.864 3.675-17.421-6.9c1.638-8.478 7.316-15.192 14.692-17.374s15.2.537 20.257 7.036a25.591 25.591 0 013.683 23.756 21.587 21.587 0 013.324 3.291l-11.569 13 13.167-10.786a25.782 25.782 0 012.491 21.794c7.467 5.89 10.58 16.723 7.615 26.5z" class="prefix__cls-1" data-name="Path 398" transform="translate(-107.019 -88.001)"/>
        <path id="prefix__Path_399" d="M382.487 496.991h-38.264c-.082-.248-.158-.513-.225-.769a25.963 25.963 0 01.443-15.076c-3.6-2.837 30.184-28.264 30.851-25.785a25.993 25.993 0 01-.443 15.085c7.493 5.888 10.617 16.747 7.638 26.545z" class="prefix__cls-1" data-name="Path 399" transform="translate(-111.937 -95.405)"/>
        <path id="prefix__Path_400" d="M605.438 461.628a21.1 21.1 0 01-10.136 9.709 26.639 26.639 0 01.083 4.957l-16.213-1.111 15.838 3.914a25.045 25.045 0 01-2.416 6.974 21.924 21.924 0 01-5.4 6.752h-22.076v.658H542.61c.045-.222.09-.436.143-.658 1.666-7.173 6.259-13 12.342-15.649-1.185-10.559 4.125-20.672 12.852-24.477a26.581 26.581 0 01-.165-3.188l10.466 4.709-10.354-6.931a23.958 23.958 0 017.945-15.879L585.376 449l-7.15-19.367c8.007-5.047 17.99-3.352 24.358 4.135s7.537 18.903 2.854 27.86z" class="prefix__cls-1" data-name="Path 400" transform="translate(-161.761 -91.27)"/>
        <path id="prefix__Path_401" d="M592.594 494.478a21.925 21.925 0 01-5.4 6.752h-22.076v.658H542.61c.045-.222.09-.436.143-.658 1.666-7.173 6.259-13 12.342-15.649-.188-1.709 4.172-1.453 9.986-.342 11.397 2.18 28.285 7.769 27.513 9.239z" class="prefix__cls-1" data-name="Path 401" transform="translate(-161.761 -99.643)"/>
        <path id="prefix__Path_402" d="M480.008 423.969s2.776 17.093-3.421 22.674 5.252 39.032 24.144 35.126 26.59-31.964 26.59-31.964-18.922-4.461-11.907-27.135z" class="prefix__cls-9" data-name="Path 402" transform="translate(-144.851 -90.678)"/>
        <path id="prefix__Path_403" d="M480.008 423.969s2.776 17.093-3.421 22.674 5.252 39.032 24.144 35.126 26.59-31.964 26.59-31.964-18.922-4.461-11.907-27.135z" class="prefix__cls-3" data-name="Path 403" transform="translate(-144.851 -90.678)"/>
        <ellipse id="prefix__Ellipse_74" cx="31.324" cy="35.682" class="prefix__cls-9" data-name="Ellipse 74" rx="31.324" ry="35.682" transform="translate(320.556 274.474)"/>
        <path id="prefix__Path_404" d="M538.183 472.151v24.255H434.75v-23.152c0-6 3.153-11.422 8.006-13.76l2.963-1.435c7.5-3.641 16.619-8.162 19.6-10.042a4.884 4.884 0 00.915-.675c1.628-1.855 1.305.555 1.305.555s-.045.462-.075 1.256c-.18 5.461.51 26.922 22.591 25.135 21.54-1.709 22.508-18.307 22.291-23.187q-.018-.678-.1-1.35a25.507 25.507 0 014.359 1.624c4.5 1.9 11.149 4.94 12.927 6.376a23.29 23.29 0 001.966 1.376 13.094 13.094 0 012.326 1.889 15.962 15.962 0 014.359 11.136z" class="prefix__cls-5" data-name="Path 404" transform="translate(-134.826 -94.162)"/>
        <path id="prefix__Path_405" d="M526.773 451.375c-1.823 9.623-7.548 27.648-28.18 28.118-21.983.5-23.259-24.409-23.116-31.477a4.413 4.413 0 00.923-.675c1.636-1.855 1.305.556 1.305.556s-2.768 28.434 22.508 26.392 22.171-24.529 22.171-24.529a28.129 28.129 0 014.389 1.615z" class="prefix__cls-3" data-name="Path 405" transform="translate(-144.995 -94.162)"/>
        <path id="prefix__Path_406" d="M453.875 389.3a5.046 5.046 0 015.65 2.35c1.14 1.82 1.313 4.017 1.455 6.119 1.358.325 2.123-1.427 2.251-2.752.5-5.393.54-10.888 2.131-16.1s5.064-10.256 10.4-12.247a10.677 10.677 0 015.68-.615c1.133.214 2.2.667 3.324.855 3.9.735 8.141-1.367 11.794.094 2.3.923 3.751 3.051 4.824 5.179a11.344 11.344 0 001.876 3.1c1.553 1.59 3.984 2 6.212 2.5s4.659 1.359 5.612 3.316c.855 1.769.225 3.812-.06 5.726a15.751 15.751 0 001.268 8.863c.413.855 1.253 1.889 2.251 1.607a2.049 2.049 0 001.065-.983c2.558-4.085 2.491-9.4 5.7-13.085 1.073-1.231 2.461-2.188 3.5-3.419a8.5 8.5 0 001.816-7.042c-.578-2.82-2.558-5.128-4.156-7.606a31.836 31.836 0 01-4.449-10.521 2.154 2.154 0 010-1.376 3.345 3.345 0 011.14-1.06 5.321 5.321 0 001.456-6.265 9.511 9.511 0 00-5.154-4.675 30.109 30.109 0 00-7.03-1.709 3.713 3.713 0 01-3.909-2.2c-.218-.641-.218-1.333-.435-1.974a4.03 4.03 0 00-3-2.393 7.754 7.754 0 00-4.014.325c-1.5.479-3.2 1.2-4.5.359-.683-.436-1.058-1.231-1.793-1.59-1.5-.718-3.046.735-4.119 1.932a10.062 10.062 0 01-3.714 2.846 4.929 4.929 0 01-4.607-.35c-1.028-.744-1.546-1.94-2.363-2.889a8.349 8.349 0 00-5.59-2.564 17.4 17.4 0 00-6.31.786A35.748 35.748 0 00457 337.14a12.685 12.685 0 00-4.254 4.5 11.441 11.441 0 00-.953 4.641c-.165 5.051 1.305 10.367 5.139 13.905-2.341 1.111-3.129 3.837-3.676 6.256-.878 3.863-1.756 7.786-1.425 11.717.165 2.034.653 4.068.39 6.094a14.849 14.849 0 00-.345 2.914 2.613 2.613 0 001.999 2.133z" class="prefix__cls-10" data-name="Path 406" transform="translate(-139.073 -77.358)"/>
        <g id="prefix__Group_36" class="prefix__cls-11" data-name="Group 36" transform="translate(312.73 266.534)">
            <path id="prefix__Path_407" d="M551.136 378a8.485 8.485 0 01-1.351 2.273c-1.043 1.248-2.431 2.214-3.5 3.419-3.211 3.658-3.144 9.008-5.7 13.093a2 2 0 01-1.065.974c-.975.291-1.816-.718-2.251-1.607a16.035 16.035 0 01-1.118-3.419l-.15.855a15.752 15.752 0 001.268 8.863c.413.855 1.253 1.889 2.251 1.607a2.049 2.049 0 001.065-.983c2.558-4.085 2.491-9.4 5.7-13.085 1.073-1.231 2.461-2.188 3.5-3.419a8.5 8.5 0 001.816-7.042 10.071 10.071 0 00-.465-1.53z" data-name="Path 407" transform="translate(-472.799 -350.719)"/>
            <path id="prefix__Path_408" d="M546.493 348.24a3.266 3.266 0 00-1.141 1.06 2.135 2.135 0 000 1.367 31.793 31.793 0 001.133 3.9 5.321 5.321 0 001.456-6.265 6.2 6.2 0 00-.525-1 4.574 4.574 0 01-.923.938z" data-name="Path 408" transform="translate(-475.149 -346.257)"/>
            <path id="prefix__Path_409" d="M456.992 355.985a16.488 16.488 0 01-4.914-9.905 15.14 15.14 0 00-.225 2.325 19.71 19.71 0 002.468 10.572 5.653 5.653 0 012.671-2.992z" data-name="Path 409" transform="translate(-451.822 -346.08)"/>
            <path id="prefix__Path_410" d="M515.086 385.384c.285-1.923.915-3.966.06-5.726-.953-1.966-3.384-2.82-5.612-3.316s-4.659-.915-6.212-2.5a11.343 11.343 0 01-1.876-3.1c-1.058-2.128-2.528-4.273-4.824-5.179-3.654-1.461-7.893.632-11.794-.094-1.125-.214-2.191-.658-3.324-.855a10.624 10.624 0 00-5.68.615c-5.334 2-8.808 7.042-10.4 12.247s-1.628 10.7-2.131 16.1c-.128 1.316-.893 3.077-2.251 2.752a13.029 13.029 0 00-1.456-6.128 5.045 5.045 0 00-5.65-2.342 2.737 2.737 0 01-1.583-1.154 11.276 11.276 0 010 2.359 14.853 14.853 0 00-.345 2.914 2.638 2.638 0 001.958 2.2 5.046 5.046 0 015.65 2.35c1.14 1.82 1.313 4.017 1.456 6.119 1.358.325 2.123-1.427 2.251-2.752.5-5.393.54-10.888 2.131-16.1s5.064-10.256 10.4-12.247a10.677 10.677 0 015.68-.615c1.133.214 2.2.667 3.324.855 3.9.735 8.141-1.367 11.794.094 2.3.923 3.751 3.051 4.824 5.179a11.344 11.344 0 001.876 3.1c1.553 1.59 3.984 2 6.212 2.5s4.5 1.3 5.5 3.111a.836.836 0 01.022-.387z" data-name="Path 410" transform="translate(-451.867 -348.753)"/>
            <path id="prefix__Path_411" d="M452.278 385.02a18.454 18.454 0 00-.248-4.76 24.142 24.142 0 00-.143 4.991 10.3 10.3 0 00.135 1.273c.078-.504.195-.999.256-1.504z" data-name="Path 411" transform="translate(-451.819 -351.048)"/>
        </g>
        <path id="prefix__Path_412" d="M403.49 542.521v-15.426a.412.412 0 01.383-.436h1.538a.412.412 0 01.383.436v6.418l6.242-6.589a.923.923 0 011.071-.168 1.175 1.175 0 01.6 1.022v13.974a1.175 1.175 0 01-.6 1.022.923.923 0 01-1.071-.168l-6.242-6.547v6.384a.412.412 0 01-.383.436h-1.538a.4.4 0 01-.383-.358z" class="prefix__cls-4" data-name="Path 412" transform="translate(-127.02 -105.792)"/>
        <path id="prefix__Path_413" d="M601.126 527.1v15.427a.466.466 0 01-.115.311.359.359 0 01-.275.125h-1.5a.412.412 0 01-.383-.436v-6.418l-6.242 6.581a.929.929 0 01-1.073.165 1.181 1.181 0 01-.608-1.02v-14.026a1.181 1.181 0 01.608-1.02.929.929 0 011.073.166l6.242 6.547v-6.376a.412.412 0 01.383-.436h1.5a.407.407 0 01.39.41z" class="prefix__cls-4" data-name="Path 413" transform="translate(-173.828 -105.796)"/>
        <path id="prefix__Path_414" d="M499.094 543.247h-3.054a1.615 1.615 0 01-1.5-1.709v-12.769a1.615 1.615 0 011.5-1.709h3.054a1.615 1.615 0 011.5 1.709v12.768a1.615 1.615 0 01-1.5 1.71zm9.679-1.709v-12.769a1.615 1.615 0 00-1.5-1.709h-3.084a1.615 1.615 0 00-1.5 1.709v12.768a1.615 1.615 0 001.5 1.709h3.054a1.408 1.408 0 001.081-.488 1.835 1.835 0 00.449-1.22z" class="prefix__cls-4" data-name="Path 414" transform="translate(-149.757 -105.851)"/>
        <path id="prefix__Rectangle_583" d="M0 0H180.067V2.282H0z" data-name="Rectangle 583" transform="translate(261.847 400.51)" style="opacity:.6;fill:#444053"/>
        <ellipse id="prefix__Ellipse_75" cx="4.749" cy="5.41" class="prefix__cls-4" data-name="Ellipse 75" rx="4.749" ry="5.41" transform="translate(312.701 396.236)"/>
        <path id="prefix__Rectangle_584" d="M0 0H55.603V2.282H0z" class="prefix__cls-4" data-name="Rectangle 584" transform="translate(261.847 400.51)"/>
        <ellipse id="prefix__Ellipse_84" cx="74.277" cy="17.948" class="prefix__cls-1" data-name="Ellipse 84" rx="74.277" ry="17.948" transform="translate(143.303 674.803)"/>
        <path id="prefix__Path_417" d="M338.033 784.906a17.311 17.311 0 00-4.674-.718 13.852 13.852 0 01-8.6-4.752 18.349 18.349 0 01-3.436-5.982c.5.205.99.419 1.5.649-1.5-3.991.075-8.47 1.456-12.5q3.511-10.256 6.64-20.623c5.252-17.512 9.754-35.725 9.656-54.356 0-6.735-1.088-13.1-1.3-19.828-.157-4.991.518-9.974.488-14.974 0-.7 0-1.393-.045-2.094a14.224 14.224 0 003.954-10.82 29.447 29.447 0 00-.4-3.145q-.4-2.705-1.05-5.35c-.5-1.855-1.17-3.632-1.748-5.444-1.118-3.513-1.876-7.171-2.829-10.743a2.943 2.943 0 011.02.316 2.659 2.659 0 01-.48-1.119 31.294 31.294 0 01-.9-6.983l.638-.325a20.645 20.645 0 00-.308-6.914c.36-3.666.923-7.359 1.268-11.008.128-1.367.075-3.085-1.028-3.419-.225-1.957-.315-3.94-.405-5.914q-.473-10.333-.938-20.657c-.315-6.914-.63-13.82-.75-20.742a68.74 68.74 0 00-1.043-13.145 18.006 18.006 0 00-.533-5.983c-1.4-5.034-5.732-9.025-10.129-8.743a21.826 21.826 0 00-4.794-5.521c.878-2.239 1.928-4.547 2.791-6.359 7.038-2.607 12.185-10.512 12.185-19.913a24.234 24.234 0 00-2.063-9.905 11.766 11.766 0 00.33-1.154 10.724 10.724 0 00-.338-5.547 17.5 17.5 0 00-.75-1.983c-.2-.427-.405-.855-.623-1.265l-.383-.658a12.336 12.336 0 00-.75-1.162 27.781 27.781 0 00-1.711-2.342 17.892 17.892 0 00-2.461-2.5 10.3 10.3 0 00-4.051-2.128 10.886 10.886 0 00-2.573-.265c-.518 0-1.043 0-1.561.051-1.05.068-2.093.154-3.136.145a6.1 6.1 0 01-1.043-.06 33.979 33.979 0 01-5.432-1.29l-.9-.214c-.308-.068-.608-.128-.915-.171a15.114 15.114 0 00-2.483-.171h-.833a20.3 20.3 0 00-2.483.291l-.825.145a21.592 21.592 0 00-6.04 2.043c-.248.128-.5.273-.75.427l-.15.094c-.2.12-.405.248-.6.385l-.113.077-.638.462-.052.043c-5.957 4.564-9.476 13.213-10.369 21.794-1 9.632.75 19.341 2.5 28.819l1.576 8.547c.068.385.143.761.21 1.145a18.915 18.915 0 00-4.944 7.812c-1.5 4.273-1.538 8.9-1.418 13.529 0 .94.045 1.88.128 2.82-.188 1.778-.353 3.564-.458 5.359-.473 8.29.413 16.623.18 24.93-.18 6.4-1.028 12.82-.615 19.178a97.186 97.186 0 003 16.555l1.891 7.76a2.177 2.177 0 00.473 1.068 1.287 1.287 0 001.058.248 79.662 79.662 0 00-3.076 9.811 34.09 34.09 0 00-1.11 6.307 43.584 43.584 0 001.343 11.606q1.8 8.547 3.586 17.161 1.26 6.025 2.513 12.042c1.651 7.914 3.309 15.88 3.616 24.024a59.293 59.293 0 01-.75 12.213 120.983 120.983 0 00-.93 36.6 200.882 200.882 0 006.07 30.263c.608-.368 1.223-.709 1.853-1.026l-.263.556q-1.3 2.564-2.4 5.256a32.417 32.417 0 00-1.283 3.6 45.815 45.815 0 00-1.245 10.658 5.91 5.91 0 00.158 2.06 3.853 3.853 0 002.7 2.308c3.241 1.051 6.61.675 9.979.179a1.526 1.526 0 00.068.248 3.839 3.839 0 002.7 2.308c4.637 1.5 9.529.085 14.308-.427s9.476-.137 14.075-1.393a6.231 6.231 0 001.951-.855 7.309 7.309 0 002.461-3.889 5.554 5.554 0 00.285-1.273 4.306 4.306 0 00-2.7-4.14zm-15.868-79.15a23.84 23.84 0 01-1.5 5.795 121.891 121.891 0 00-7.7 27.494 144.653 144.653 0 00-1.7 19.016c-.075 4.7.083 9.624-1.636 13.846l.623-.111c-.2.41-.383.855-.563 1.18l-.09.188a20.259 20.259 0 01-2.048-6.547c0-.077-.338-.137-.855-.171a201.053 201.053 0 01-2.191-40.93 21.422 21.422 0 01.6-4.914c.383-1.376 1.028-2.632 1.5-3.966a32.516 32.516 0 001.5-6.957 112.387 112.387 0 00.945-18.392c-.18-5.8 1-11.572 2-17.349.48-2.744.923-5.5 1.163-8.247l.045-.556a90.016 90.016 0 019.213 27.246 44.269 44.269 0 01.69 13.375zm-32.113-123.515l.24.239a18.009 18.009 0 012 2.384 3.305 3.305 0 01.63 1.316c.225 1.248-.683 2.308-1.426 3.222a14.265 14.265 0 00-.908 1.248q-.24-4.2-.51-8.41z" data-name="Path 417" transform="translate(-95.58 -94.24)"/>
        <path id="prefix__Path_418" d="M279.657 542.53l-.825 7.256c-.278 2.461-.555 4.914-.705 7.384-.5 8.222.428 16.478.188 24.717-.2 6.341-1.08 12.675-.653 19.008a90.3 90.3 0 003.174 16.409l1.98 7.696a2.136 2.136 0 00.5 1.06 1.567 1.567 0 001.268.231l8.793-.906c-.563-2.94-1.185-5.983-1.5-9-.24-2.359-.383-4.735-.533-7.111-.465-7.4-1-14.8-1.5-22.221l-.938-12.991a110.844 110.844 0 00-2.056-16.785 34.928 34.928 0 00-7.193-14.747z" class="prefix__cls-5" data-name="Path 418" transform="translate(-95.569 -108.099)"/>
        <path id="prefix__Path_419" d="M279.657 542.53l-.825 7.256c-.278 2.461-.555 4.914-.705 7.384-.5 8.222.428 16.478.188 24.717-.2 6.341-1.08 12.675-.653 19.008a90.3 90.3 0 003.174 16.409l1.98 7.696a2.136 2.136 0 00.5 1.06 1.567 1.567 0 001.268.231l8.793-.906c-.563-2.94-1.185-5.983-1.5-9-.24-2.359-.383-4.735-.533-7.111-.465-7.4-1-14.8-1.5-22.221l-.938-12.991a110.844 110.844 0 00-2.056-16.785 34.928 34.928 0 00-7.193-14.747z" class="prefix__cls-3" data-name="Path 419" transform="translate(-95.569 -108.099)"/>
        <path id="prefix__Path_420" d="M300.347 830.019a33.019 33.019 0 00-1.35 3.572 43.474 43.474 0 00-1.305 10.564 5.81 5.81 0 00.165 2.043 3.97 3.97 0 002.844 2.282c4.869 1.5 10 .094 15.006-.419s9.949-.137 14.78-1.376a6.953 6.953 0 002.048-.812 7.233 7.233 0 002.588-3.846 5.593 5.593 0 00.293-1.265 4.309 4.309 0 00-2.836-4.119 18.929 18.929 0 00-4.907-.709c-6.958-.811-12.57-6.843-13.685-14.709-.06-.41-8.133-.162-9 .368-.99.624-1.591 2.171-2.153 3.222q-1.335 2.538-2.488 5.204z" class="prefix__cls-14" data-name="Path 420" transform="translate(-100.593 -148.576)"/>
        <path id="prefix__Path_421" d="M300.347 830.019a33.019 33.019 0 00-1.35 3.572 43.474 43.474 0 00-1.305 10.564 5.81 5.81 0 00.165 2.043 3.97 3.97 0 002.844 2.282c4.869 1.5 10 .094 15.006-.419s9.949-.137 14.78-1.376a6.953 6.953 0 002.048-.812 7.233 7.233 0 002.588-3.846 5.593 5.593 0 00.293-1.265 4.309 4.309 0 00-2.836-4.119 18.929 18.929 0 00-4.907-.709c-6.958-.811-12.57-6.843-13.685-14.709-.06-.41-8.133-.162-9 .368-.99.624-1.591 2.171-2.153 3.222q-1.335 2.538-2.488 5.204z" class="prefix__cls-3" data-name="Path 421" transform="translate(-100.593 -148.576)"/>
        <path id="prefix__Path_422" d="M318.2 833.192a31.318 31.318 0 00-1.35 3.564 43 43 0 00-1.305 10.563 5.645 5.645 0 00.165 2.043 3.976 3.976 0 002.836 2.291c4.869 1.487 10.009.085 15.006-.427s9.956-.137 14.78-1.376a6.684 6.684 0 002.048-.855 7.2 7.2 0 002.588-3.846 5.592 5.592 0 00.293-1.265 4.318 4.318 0 00-2.836-4.12c-1.561-.615-3.264-.513-4.907-.709-6.954-.813-12.565-6.84-13.685-14.7-.06-.41-8.133-.171-9 .359-1 .624-1.6 2.171-2.161 3.222-.863 1.735-1.703 3.478-2.472 5.256z" class="prefix__cls-14" data-name="Path 422" transform="translate(-105.05 -149.03)"/>
        <path id="prefix__Path_423" d="M344.41 713.722c.105 18.469-4.607 36.52-10.136 53.843Q330.987 777.873 327.3 788c-1.456 4-3.1 8.444-1.538 12.393-4.5-1.949-9.078-3.094-13.813-2.2 1.8-4.188 1.628-9.059 1.711-13.674a136.021 136.021 0 011.771-18.845 115.434 115.434 0 018.1-27.255 22.918 22.918 0 001.568-5.743 41.665 41.665 0 00-.668-13.256 85.5 85.5 0 00-9.679-27.007l-.045.547q-.42 4.123-1.215 8.179c-1.058 5.718-2.3 11.444-2.108 17.2a105.75 105.75 0 01-.99 18.23 30.826 30.826 0 01-1.613 6.889c-.518 1.325-1.193 2.564-1.6 3.94a20.273 20.273 0 00-.63 4.872 187.713 187.713 0 002.491 41.656 20.935 20.935 0 00-12.094 3.137 189.539 189.539 0 01-6.377-30 113.284 113.284 0 01.975-36.289 54.775 54.775 0 00.788-12.093c-.323-8.077-2.063-15.974-3.8-23.819l-2.634-11.967q-1.876-8.547-3.751-17.016c-.833-3.769-1.673-7.623-1.411-11.5a32.006 32.006 0 011.17-6.256 74.234 74.234 0 018.306-19.349c14.458.923 29.088-.615 43.516-1.88a2.617 2.617 0 012.041.393 3.519 3.519 0 01.825 2.12l5.424 35.041a99.751 99.751 0 011.538 14.786c0 4.957-.675 9.9-.51 14.845.221 6.661 1.332 12.968 1.362 19.643z" class="prefix__cls-10" data-name="Path 423" transform="translate(-96.353 -120.351)"/>
        <path id="prefix__Path_424" d="M320.241 699.548q-.42 4.123-1.215 8.179c-3.144-6.2-6.535-12.239-9.431-18.589-.75-1.632-1.456-3.291-2.168-4.949l-2.138-4.957c-.4-.932-.8-1.863-1.155-2.812a22.23 22.23 0 01-1.343-4.273c1.05-.222 3.646 3.008 4.427 3.854a66.7 66.7 0 014.5 5.675 62.08 62.08 0 014.7 7.008 36.937 36.937 0 013.823 10.864z" class="prefix__cls-3" data-name="Path 424" transform="translate(-101.873 -126.937)"/>
        <path id="prefix__Path_425" d="M331.507 504.024s-8.028 14.572-6.542 17.623-25.284-2.709-25.284-2.709 14.578-14.572 13.085-20.674 18.741 5.76 18.741 5.76z" class="prefix__cls-15" data-name="Path 425" transform="translate(-101.096 -101.411)"/>
        <ellipse id="prefix__Ellipse_85" cx="18.149" cy="20.674" class="prefix__cls-15" data-name="Ellipse 85" rx="18.149" ry="20.674" transform="translate(205.126 365.674)"/>
        <path id="prefix__Path_426" d="M326.546 521.421a19.1 19.1 0 00-7.63-6.991 24.593 24.593 0 00-5.424-1.521l-7.24-1.453c-1.771-.359-3.669-.692-5.319.137a8.889 8.889 0 00-2.251 1.889c-2.513 2.658-4.952 5.572-8.111 7.111-.863.419-1.763.727-2.626 1.145-3.534 1.709-6.175 5.35-7.668 9.4-1.576 4.222-1.621 8.812-1.5 13.4a26.73 26.73 0 00.413 4.718 33.243 33.243 0 001.373 4.325 87.386 87.386 0 012.506 9.17q2.814 12.264 4.682 24.785a10.261 10.261 0 00.908 3.419 11.555 11.555 0 002.506 2.744 16.889 16.889 0 012.093 2.367 3.191 3.191 0 01.683 1.265c.233 1.231-.75 2.291-1.5 3.188a16.065 16.065 0 00-3.391 6.726 2.962 2.962 0 00-.54 1.855 3.666 3.666 0 01.173 1.47 3.4 3.4 0 01-.683 1.205 5.048 5.048 0 00-.75 3.658 45.85 45.85 0 0017.767 4.735c1.5.085 3 .085 4.5.291 1.065.154 2.116.4 3.181.547a30.165 30.165 0 004.652.137c8.08-.188 16.394-.419 23.814-4.068.7-4.333-.81-8.752-1.756-13.025-1.5-6.837-1.876-13.837-3-20.734-.75-4.709-1.876-9.35-2.513-14.093a39.136 39.136 0 01.36-14.273c1.013-4.085 1.32-8.256 2.371-12.333s1.786-8.5.6-12.529c-1.504-4.988-6.058-8.95-10.68-8.667z" class="prefix__cls-5" data-name="Path 426" transform="translate(-95.866 -103.527)"/>
        <path id="prefix__Path_427" d="M336.1 470.147c.885-3.666-.855-7.487-2.926-10.47-2.251-3.205-5.117-6.094-8.636-6.9-2.859-.658-5.822.137-8.733-.128-2.573-.231-5.049-1.291-7.608-1.709a21.2 21.2 0 00-6.963.3 23.992 23.992 0 00-6.34 2.017c-7.728 3.906-12.252 13.529-13.3 23.076s.788 19.17 2.618 28.563l1.658 8.5c1.726 8.846 3.451 17.725 3.909 26.768s-.4 18.324-3.661 26.58c10.555-6.458 18.733-17.005 23.056-29.734 1.17-3.5 2.041-7.128 3.346-10.564 1.118-2.957 2.551-5.76 3.541-8.777a32.1 32.1 0 001.583-10.658c-.06-2.735-.458-5.453-.39-8.188s.683-5.581 2.341-7.564c1.5-1.752 3.564-2.564 5.462-3.7a23.734 23.734 0 007.645-7.265 8.637 8.637 0 001.561-4.581c.294-2.019 1.367-3.626 1.837-5.566z" class="prefix__cls-14" data-name="Path 427" transform="translate(-96.502 -94.764)"/>
        <path id="prefix__Path_428" d="M353.461 653.215c.188 2.128-.15 4.273.255 6.384.308 1.573 1.02 2.991 1.441 4.53a24.367 24.367 0 01.638 5.444c.06 1.538-.045 3.419-1.245 4.136-.525.316-1.155.316-1.7.59a1.28 1.28 0 00-.7 1.6c.315.581.855.487 1.35.6s1.028.692.75 1.162a.851.851 0 01-.435.316 5.062 5.062 0 00-1.41.769 1.75 1.75 0 00-.578 1.564.947.947 0 00.47.649.755.755 0 00.738-.017 4.77 4.77 0 00-.353 1.709c1.921.94 4.074-.291 5.875-1.479a22.01 22.01 0 002.251-1.641 13.605 13.605 0 004.382-10.914 28.757 28.757 0 00-.428-3.12 52.5 52.5 0 00-1.1-5.307c-.518-1.838-1.223-3.59-1.831-5.393-1.29-3.837-2.123-7.854-3.294-11.743a1.823 1.823 0 00-.563-1.017 1.418 1.418 0 00-.833-.179 12.042 12.042 0 00-3.909.41 4.133 4.133 0 00-2.386 1.709c-.353.855.21 1.573.548 2.282a20.981 20.981 0 012.071 6.957z" class="prefix__cls-15" data-name="Path 428" transform="translate(-113.845 -122.532)"/>
        <path id="prefix__Path_429" d="M347.085 533.64a6.313 6.313 0 01.96 1.521c2.581 5.342 2.611 11.726 2.731 17.82.135 6.837.465 13.675.8 20.555l.983 20.512c.1 1.957.188 3.914.435 5.854 1.155.333 1.2 2.043 1.073 3.419-.833 8.359-2.9 16.965-.75 25.007a2.653 2.653 0 00.5 1.111 5.177 5.177 0 00-3.354-.051c-1.073.256-2.108.709-3.189.991-1.366.35-2.911.5-3.841 1.709a94.508 94.508 0 01-2.513-11.042c-.51-3.419-.653-6.94-1.868-10.1-.488-1.273-1.148-2.453-1.748-3.675-3.144-6.393-4.689-13.615-6.2-20.742a34.4 34.4 0 01-.48-10.307 40.248 40.248 0 00.375-4.743 41.26 41.26 0 00-.578-4.991 37.95 37.95 0 01.878-14.452c1.125-4.35 2.116-8.931 4.5-12.589s7.301-5.747 11.286-5.807z" class="prefix__cls-3" data-name="Path 429" transform="translate(-108.692 -106.807)"/>
        <path id="prefix__Path_430" d="M348.28 532.84a6.373 6.373 0 01.96 1.53c2.581 5.333 2.611 11.726 2.731 17.82.135 6.837.465 13.675.8 20.512l.983 20.512c.1 1.957.188 3.914.435 5.854 1.155.333 1.2 2.043 1.065 3.419-.825 8.359-2.889 16.956-.75 25.007a2.651 2.651 0 00.5 1.111 5.177 5.177 0 00-3.354-.051c-1.073.256-2.108.709-3.189.983-1.365.359-2.911.5-3.841 1.709a93.577 93.577 0 01-2.491-11.093c-.51-3.419-.653-6.931-1.868-10.094q-.792-1.887-1.748-3.675c-3.151-6.393-4.689-13.623-6.2-20.751a34.4 34.4 0 01-.48-10.307 25.238 25.238 0 00-.2-9.735 37.9 37.9 0 01.878-14.444c1.125-4.35 2.116-8.931 4.5-12.589s7.289-5.65 11.269-5.718z" class="prefix__cls-5" data-name="Path 430" transform="translate(-108.994 -106.691)"/>
        <g id="prefix__Group_37" class="prefix__cls-11" data-name="Group 37" transform="translate(189.61 356.021)">
            <path id="prefix__Path_431" d="M336.658 459.678c-2.251-3.205-5.117-6.094-8.636-6.9-2.859-.658-5.822.137-8.733-.128-2.573-.231-5.049-1.291-7.608-1.709a21.2 21.2 0 00-6.963.3 23.992 23.992 0 00-6.34 2.017 18.367 18.367 0 00-3.129 2.026 24.143 24.143 0 015.6-1.709 21.124 21.124 0 016.955-.3c2.566.376 5.034 1.427 7.615 1.658 2.9.265 5.867-.521 8.733.128 3.519.8 6.4 3.7 8.628 6.906 2.078 2.974 3.811 6.795 2.934 10.47-.465 1.932-1.546 3.624-1.838 5.615a8.592 8.592 0 01-1.568 4.581 24.292 24.292 0 01-5.507 5.837c.578-.308 1.17-.615 1.733-.949a23.733 23.733 0 007.645-7.265 8.636 8.636 0 001.561-4.581c.3-2.017 1.373-3.675 1.838-5.615.891-3.579-.849-7.4-2.92-10.382z" data-name="Path 431" transform="translate(-289.6 -450.785)"/>
            <path id="prefix__Path_432" d="M321.2 498.03a7.891 7.891 0 011.013-1c-1.733.957-3.556 1.795-4.884 3.419-1.658 1.974-2.251 4.829-2.341 7.564s.338 5.453.39 8.179a32.152 32.152 0 01-1.583 10.666c-.99 3.017-2.423 5.812-3.541 8.777-1.3 3.419-2.168 7.059-3.339 10.555a56.514 56.514 0 01-19.065 27.024c-.045.111-.083.231-.128.342 10.555-6.458 18.733-17.005 23.056-29.733 1.17-3.5 2.041-7.128 3.346-10.564 1.118-2.957 2.551-5.76 3.541-8.777a32.1 32.1 0 001.583-10.658c-.06-2.735-.458-5.453-.39-8.188s.681-5.623 2.342-7.606z" data-name="Path 432" transform="translate(-287.72 -457.506)"/>
        </g>
    </g>
</svg>
