<svg xmlns="http://www.w3.org/2000/svg" width="202.291" height="37" viewBox="0 0 202.291 57">
    <defs>
        <style>
            .prefix__cls-1{fill:#2e49e5}
        </style>
    </defs>
    <g id="prefix__skillfuze-logo">
        <g id="prefix__Shape">
            <path id="prefix__Inner" d="M22.213 41.424a2.959 2.959 0 01-.813-2.054 18.256 18.256 0 015.03-12.713A16.7 16.7 0 0138.6 21.4a2.909 2.909 0 010 5.812 11.3 11.3 0 00-8.229 3.553 12.345 12.345 0 00-3.4 8.6 2.847 2.847 0 01-2.778 2.908 2.72 2.72 0 01-1.98-.849z" class="prefix__cls-1" transform="translate(-11.167 -10.706)"/>
            <path id="prefix__Outer" d="M.813 32.118A2.956 2.956 0 010 30.069 30.522 30.522 0 018.416 8.8 27.919 27.919 0 0128.772 0a2.847 2.847 0 012.778 2.908 2.846 2.846 0 01-2.783 2.9A22.557 22.557 0 0012.346 12.9a24.6 24.6 0 00-6.785 17.159 2.847 2.847 0 01-2.778 2.908 2.708 2.708 0 01-1.97-.849z" class="prefix__cls-1"/>
        </g>
        <g id="prefix__Group_9" data-name="Group 9" transform="translate(19.438 20.869)">
            <path id="prefix__Path_202" d="M47.081 76.867a15.128 15.128 0 01-5.332-2.774 2.855 2.855 0 01-1.1-2.4 2.905 2.905 0 01.6-1.824 1.752 1.752 0 011.411-.775 3.783 3.783 0 011.961.7 14.07 14.07 0 004.3 2.249 16.723 16.723 0 004.973.7 9.452 9.452 0 005.356-1.274 4.223 4.223 0 001.865-3.723 3.226 3.226 0 00-1.745-2.923 22.382 22.382 0 00-5.81-1.974 33.34 33.34 0 01-6.838-2.2 9.742 9.742 0 01-3.969-3.2 8.535 8.535 0 01-1.338-4.949 9.62 9.62 0 011.674-5.547 11.074 11.074 0 014.662-3.823 15.929 15.929 0 016.718-1.374q6.835 0 11.141 3.8a3.693 3.693 0 01.885 1.074 3.227 3.227 0 01-.335 3.148 1.752 1.752 0 01-1.411.775 2.537 2.537 0 01-.885-.15 6.971 6.971 0 01-1.076-.55 15.966 15.966 0 00-3.8-2.224 12.359 12.359 0 00-4.519-.725 8.584 8.584 0 00-5.14 1.374A4.461 4.461 0 0047.44 52.1a3.552 3.552 0 001.674 3.148A19.05 19.05 0 0054.8 57.3a37.129 37.129 0 016.91 2.224 10.307 10.307 0 014.064 3.123 7.729 7.729 0 011.415 4.753 9.359 9.359 0 01-1.65 5.472 10.816 10.816 0 01-4.638 3.7 16.764 16.764 0 01-6.862 1.324 23.3 23.3 0 01-6.958-1.029z" data-name="Path 202" transform="translate(-40.65 -41.76)"/>
            <path id="prefix__Path_203" d="M128.707 74.943a3.024 3.024 0 01-.789 2.049 2.383 2.383 0 01-1.841.9 2.753 2.753 0 01-1.961-.9L112.927 66.4v8.546a2.761 2.761 0 01-.861 2.2 3.159 3.159 0 01-2.152.75 3.072 3.072 0 01-2.128-.75 2.8 2.8 0 01-.837-2.2V45.108a2.8 2.8 0 01.837-2.2 3.072 3.072 0 012.128-.75 3.159 3.159 0 012.152.75 2.761 2.761 0 01.861 2.2V63.9l10.233-10.246a2.65 2.65 0 011.961-.9 2.57 2.57 0 011.913.85 2.8 2.8 0 01.813 2 2.973 2.973 0 01-.909 2.1L119.43 65l8.32 7.8a2.964 2.964 0 01.957 2.143z" data-name="Path 203" transform="translate(-75.247 -41.96)"/>
            <path id="prefix__Path_204" d="M161.387 87.722a2.875 2.875 0 01-.837-2.224v-19.29a2.8 2.8 0 01.837-2.2 3.072 3.072 0 012.128-.75 3.159 3.159 0 012.152.75 2.761 2.761 0 01.861 2.2V85.5a2.837 2.837 0 01-.861 2.224 3.1 3.1 0 01-2.152.775 3.02 3.02 0 01-2.128-.777z" data-name="Path 204" transform="translate(-103.217 -52.516)"/>
            <path id="prefix__Path_205" d="M186.787 77.167a2.875 2.875 0 01-.837-2.224V45.108a2.8 2.8 0 01.837-2.2 3.072 3.072 0 012.128-.75 3.159 3.159 0 012.152.75 2.761 2.761 0 01.861 2.2v29.835a2.837 2.837 0 01-.861 2.224 3.1 3.1 0 01-2.152.775 3.02 3.02 0 01-2.128-.775z" data-name="Path 205" transform="translate(-116.472 -41.96)"/>
            <path id="prefix__Path_206" d="M212.187 77.167a2.875 2.875 0 01-.837-2.224V45.108a2.8 2.8 0 01.837-2.2 3.072 3.072 0 012.128-.75 3.159 3.159 0 012.152.75 2.761 2.761 0 01.861 2.2v29.835a2.837 2.837 0 01-.861 2.224 3.1 3.1 0 01-2.152.775 3.02 3.02 0 01-2.128-.775z" data-name="Path 206" transform="translate(-129.726 -41.96)"/>
            <path id="prefix__Path_207" d="M241.6 48.626a5.632 5.632 0 00-1 3.6v1.149h4.064q2.675 0 2.678 2.349t-2.678 2.349H240.6v17.039a2.8 2.8 0 01-.837 2.2 3.072 3.072 0 01-2.128.75 3.159 3.159 0 01-2.152-.75 2.761 2.761 0 01-.861-2.2V58.071h-2.391q-2.675 0-2.678-2.349t2.678-2.349h2.391v-.35a10.733 10.733 0 012.367-7.371 9.536 9.536 0 016.671-3.023l1.243-.1a4.166 4.166 0 012.7.425 2.05 2.05 0 01.789 1.774q0 2.151-2.343 2.4l-1.243.1a4.257 4.257 0 00-3.206 1.398z" data-name="Path 207" transform="translate(-139.223 -42.129)"/>
            <path id="prefix__Path_208" d="M293.051 64.06a2.886 2.886 0 01.813 2.149V85.6a2.769 2.769 0 01-.837 2.1 3.012 3.012 0 01-2.176.8 2.814 2.814 0 01-2.056-.75 2.734 2.734 0 01-.765-2.049v-1.252a7.76 7.76 0 01-2.965 3.073 8.288 8.288 0 01-4.208 1.074q-8.607 0-8.607-10.095V66.208a2.886 2.886 0 01.813-2.149 2.924 2.924 0 012.152-.8 2.994 2.994 0 012.2.8 2.886 2.886 0 01.813 2.149v12.344a6.09 6.09 0 001 3.848 3.8 3.8 0 003.156 1.249 5.039 5.039 0 003.993-1.724 6.7 6.7 0 001.506-4.573V66.208a2.886 2.886 0 01.813-2.149 2.924 2.924 0 012.152-.8 3 3 0 012.203.801z" data-name="Path 208" transform="translate(-161.505 -52.516)"/>
            <path id="prefix__Path_209" d="M348.916 86.348a2.243 2.243 0 01-.669 1.724 2.853 2.853 0 01-2.008.625h-15.972a2.588 2.588 0 01-1.96-.8 2.646 2.646 0 01-.765-1.9 3.429 3.429 0 01.861-2.2l12.289-14.842h-10.664a2.924 2.924 0 01-2.008-.6 2.62 2.62 0 010-3.5 2.923 2.923 0 012.008-.6h15.445a2.624 2.624 0 011.984.775 2.681 2.681 0 01.741 1.924 3.412 3.412 0 01-.813 2.2L335.049 84h11.189q2.675 0 2.678 2.348z" data-name="Path 209" transform="translate(-190.258 -53.016)"/>
            <path id="prefix__Path_210" d="M398.561 82.05a2.788 2.788 0 01.5 1.749 3.026 3.026 0 01-1.769 2.6 15.59 15.59 0 01-3.682 1.524 14.511 14.511 0 01-3.921.575 11.89 11.89 0 01-8.942-3.4q-3.3-3.4-3.3-9.3a14.8 14.8 0 011.435-6.647 10.711 10.711 0 014.041-4.5 11.073 11.073 0 015.905-1.6 10.259 10.259 0 015.5 1.449 9.661 9.661 0 013.634 4.1 14.108 14.108 0 011.291 6.247q0 2.151-1.817 2.149h-14.104a8.063 8.063 0 001.865 5.072 6.106 6.106 0 004.59 1.624 8.4 8.4 0 002.7-.4 26.288 26.288 0 002.654-1.1 5.112 5.112 0 012.1-.8 1.581 1.581 0 011.32.658zm-13.484-12.993a7.742 7.742 0 00-1.745 4.6h10.807a7.313 7.313 0 00-1.435-4.623 4.636 4.636 0 00-3.73-1.574 5.021 5.021 0 00-3.897 1.597z" data-name="Path 210" transform="translate(-216.402 -52.416)"/>
            <path id="prefix__Path_211" d="M160.356 48.222a3.222 3.222 0 01-.956-2.422 3.143 3.143 0 01.956-2.4 4.121 4.121 0 015.14 0 3.093 3.093 0 01.98 2.4 3.222 3.222 0 01-.956 2.424 4.068 4.068 0 01-5.164 0z" class="prefix__cls-1" data-name="Path 211" transform="translate(-102.617 -42.13)"/>
        </g>
    </g>
</svg>
